<svg width="59" height="46" viewBox="0 0 59 46" fill="none" xmlns="http://www.w3.org/2000/svg">
<path opacity="0.47" d="M20.8433 0L24.037 5.92424C22.2441 8.4798 20.5632 11.3258 18.9943 14.4621C17.5375 17.5985 16.6971 20.851 16.4729 24.2197L25.7179 25.9621V46H0V31.7121C0 23.4646 1.849 16.8434 5.54701 11.8485C9.35708 6.73737 14.4558 2.78788 20.8433 0ZM54.1254 0L57.3191 5.92424C55.5261 8.4798 53.8452 11.3258 52.2764 14.4621C50.8196 17.5985 49.9791 20.851 49.755 24.2197L59 25.9621V46H33.2821V31.7121C33.2821 23.4646 35.1311 16.8434 38.8291 11.8485C42.6391 6.73737 47.7379 2.78788 54.1254 0Z" fill="#FFCE4F"/>
</svg>
