<svg width="62" height="51" viewBox="0 0 62 51" fill="none" xmlns="http://www.w3.org/2000/svg">
<path d="M31.0001 33.0098C36.523 33.0098 41.0001 28.5326 41.0001 23.0098C41.0001 17.4869 36.523 13.0098 31.0001 13.0098C25.4773 13.0098 21.0001 17.4869 21.0001 23.0098C21.0001 28.5326 25.4773 33.0098 31.0001 33.0098Z" stroke="white" stroke-width="2" stroke-linecap="round" stroke-linejoin="round"/>
<path d="M14.95 42.8515C16.4547 39.8876 18.7508 37.3982 21.5838 35.6593C24.4168 33.9205 27.6759 33 31 33C34.324 33 37.5831 33.9205 40.4161 35.6593C43.2491 37.3982 45.5452 39.8876 47.0499 42.8515" stroke="white" stroke-width="2" stroke-linecap="round" stroke-linejoin="round"/>
<path d="M48.9999 25.0098L54.9999 31.0098L60.9999 25.0098" stroke="white" stroke-width="2" stroke-linecap="round" stroke-linejoin="round"/>
<path d="M1 25.0098L7 19.0098L13 25.0098" stroke="white" stroke-width="2" stroke-linecap="round" stroke-linejoin="round"/>
<path d="M6.99988 19.0098V25.0098C6.99799 30.091 8.60887 35.0418 11.6005 39.149C14.5922 43.2562 18.8102 46.3079 23.6472 47.8647C28.4841 49.4214 33.6903 49.4027 38.516 47.8114C43.3416 46.2201 47.5377 43.1383 50.4999 39.0098" stroke="white" stroke-width="2" stroke-linecap="round" stroke-linejoin="round"/>
<path d="M54.9999 31.0089V25.0089C55.0018 19.9277 53.3909 14.9769 50.3993 10.8697C47.4076 6.76249 43.1896 3.71076 38.3527 2.15405C33.5157 0.597335 28.3095 0.615969 23.4839 2.20727C18.6582 3.79857 14.4621 6.88041 11.4999 11.0089" stroke="white" stroke-width="2" stroke-linecap="round" stroke-linejoin="round"/>
</svg>
