<svg width="38" height="49" viewBox="0 0 38 49" fill="none" xmlns="http://www.w3.org/2000/svg">
<path d="M2.79221 47.5996H35.0537" stroke="white" stroke-width="2" stroke-linecap="round" stroke-linejoin="round"/>
<path d="M18.923 26.0924C22.8824 26.0924 26.0922 22.8826 26.0922 18.9231C26.0922 14.9637 22.8824 11.7539 18.923 11.7539C14.9635 11.7539 11.7538 14.9637 11.7538 18.9231C11.7538 22.8826 14.9635 26.0924 18.923 26.0924Z" stroke="white" stroke-width="2" stroke-linecap="round" stroke-linejoin="round"/>
<path d="M36.8462 18.9231C36.8462 35.0538 18.9231 47.6 18.9231 47.6C18.9231 47.6 1 35.0538 1 18.9231C1 14.1696 2.88832 9.61078 6.24955 6.24955C9.61078 2.88832 14.1696 1 18.9231 1C23.6766 1 28.2354 2.88832 31.5966 6.24955C34.9578 9.61078 36.8462 14.1696 36.8462 18.9231Z" stroke="white" stroke-width="2" stroke-linecap="round" stroke-linejoin="round"/>
</svg>
