<svg width="20" height="20" viewBox="0 0 20 20" fill="none" xmlns="http://www.w3.org/2000/svg">
<path d="M16.9231 2.38477H3.07692C1.92987 2.38477 1 3.31464 1 4.46169V16.9232C1 18.0703 1.92987 19.0001 3.07692 19.0001H16.9231C18.0701 19.0001 19 18.0703 19 16.9232V4.46169C19 3.31464 18.0701 2.38477 16.9231 2.38477Z" stroke="black" stroke-width="1.5" stroke-linejoin="round"/>
<path d="M11.7308 10.0008C12.3044 10.0008 12.7693 9.53582 12.7693 8.96229C12.7693 8.38876 12.3044 7.92383 11.7308 7.92383C11.1573 7.92383 10.6924 8.38876 10.6924 8.96229C10.6924 9.53582 11.1573 10.0008 11.7308 10.0008Z" fill="black"/>
<path d="M15.1928 10.0008C15.7663 10.0008 16.2312 9.53582 16.2312 8.96229C16.2312 8.38876 15.7663 7.92383 15.1928 7.92383C14.6192 7.92383 14.1543 8.38876 14.1543 8.96229C14.1543 9.53582 14.6192 10.0008 15.1928 10.0008Z" fill="black"/>
<path d="M11.7308 13.4617C12.3044 13.4617 12.7693 12.9968 12.7693 12.4232C12.7693 11.8497 12.3044 11.3848 11.7308 11.3848C11.1573 11.3848 10.6924 11.8497 10.6924 12.4232C10.6924 12.9968 11.1573 13.4617 11.7308 13.4617Z" fill="black"/>
<path d="M15.1928 13.4617C15.7663 13.4617 16.2312 12.9968 16.2312 12.4232C16.2312 11.8497 15.7663 11.3848 15.1928 11.3848C14.6192 11.3848 14.1543 11.8497 14.1543 12.4232C14.1543 12.9968 14.6192 13.4617 15.1928 13.4617Z" fill="black"/>
<path d="M4.80799 13.4617C5.38152 13.4617 5.84645 12.9968 5.84645 12.4232C5.84645 11.8497 5.38152 11.3848 4.80799 11.3848C4.23447 11.3848 3.76953 11.8497 3.76953 12.4232C3.76953 12.9968 4.23447 13.4617 4.80799 13.4617Z" fill="black"/>
<path d="M8.26893 13.4617C8.84246 13.4617 9.30739 12.9968 9.30739 12.4232C9.30739 11.8497 8.84246 11.3848 8.26893 11.3848C7.6954 11.3848 7.23047 11.8497 7.23047 12.4232C7.23047 12.9968 7.6954 13.4617 8.26893 13.4617Z" fill="black"/>
<path d="M4.80799 16.9226C5.38152 16.9226 5.84645 16.4577 5.84645 15.8842C5.84645 15.3106 5.38152 14.8457 4.80799 14.8457C4.23447 14.8457 3.76953 15.3106 3.76953 15.8842C3.76953 16.4577 4.23447 16.9226 4.80799 16.9226Z" fill="black"/>
<path d="M8.26893 16.9226C8.84246 16.9226 9.30739 16.4577 9.30739 15.8842C9.30739 15.3106 8.84246 14.8457 8.26893 14.8457C7.6954 14.8457 7.23047 15.3106 7.23047 15.8842C7.23047 16.4577 7.6954 16.9226 8.26893 16.9226Z" fill="black"/>
<path d="M11.7308 16.9226C12.3044 16.9226 12.7693 16.4577 12.7693 15.8842C12.7693 15.3106 12.3044 14.8457 11.7308 14.8457C11.1573 14.8457 10.6924 15.3106 10.6924 15.8842C10.6924 16.4577 11.1573 16.9226 11.7308 16.9226Z" fill="black"/>
<path d="M4.46094 1V2.38462M15.5379 1V2.38462" stroke="black" stroke-width="1.5" stroke-linecap="round" stroke-linejoin="round"/>
<path d="M19 5.8457H1" stroke="black" stroke-width="1.5" stroke-linejoin="round"/>
</svg>
