<svg width="20" height="27" viewBox="0 0 20 27" fill="none" xmlns="http://www.w3.org/2000/svg">
<path d="M9.69277 1C4.89364 1 1 4.7059 1 9.27021C1 14.5221 6.79518 22.8448 8.9231 25.7195C9.01143 25.8408 9.1272 25.9396 9.26096 26.0076C9.39472 26.0757 9.54268 26.1112 9.69277 26.1112C9.84286 26.1112 9.99083 26.0757 10.1246 26.0076C10.2584 25.9396 10.3741 25.8408 10.4624 25.7195C12.5904 22.846 18.3855 14.5263 18.3855 9.27021C18.3855 4.7059 14.4919 1 9.69277 1Z" stroke="black" stroke-width="1.5" stroke-linecap="round" stroke-linejoin="round"/>
<path d="M9.69251 12.5901C11.2928 12.5901 12.5901 11.2928 12.5901 9.69251C12.5901 8.09222 11.2928 6.79492 9.69251 6.79492C8.09222 6.79492 6.79492 8.09222 6.79492 9.69251C6.79492 11.2928 8.09222 12.5901 9.69251 12.5901Z" stroke="black" stroke-width="1.5" stroke-linecap="round" stroke-linejoin="round"/>
</svg>
