<svg width="18" height="23" viewBox="0 0 18 23" fill="none" xmlns="http://www.w3.org/2000/svg">
<path d="M9 0C6.61388 0.00271773 4.32627 0.955602 2.63903 2.6496C0.951787 4.34361 0.00270689 6.64039 0 9.03607C0 16.7681 8.18182 22.6107 8.52955 22.8571C8.6689 22.9503 8.83258 23 9 23C9.16742 23 9.3311 22.9503 9.47046 22.8571C9.81818 22.6107 18 16.7681 18 9.03607C17.9973 6.64039 17.0482 4.34361 15.361 2.6496C13.6737 0.955602 11.3861 0.00271773 9 0ZM9 5.75022C9.64728 5.75022 10.28 5.94293 10.8182 6.30399C11.3564 6.66504 11.7759 7.17822 12.0236 7.77863C12.2713 8.37904 12.3361 9.03971 12.2098 9.6771C12.0836 10.3145 11.7719 10.9 11.3142 11.3595C10.8565 11.819 10.2733 12.132 9.63848 12.2588C9.00363 12.3856 8.34559 12.3205 7.74758 12.0718C7.14957 11.8231 6.63844 11.4019 6.27883 10.8616C5.91922 10.3212 5.72727 9.68594 5.72727 9.03607C5.72727 8.16461 6.07208 7.32884 6.68583 6.71262C7.29959 6.09641 8.13202 5.75022 9 5.75022Z" fill="#F6F6F6"/>
</svg>
