<svg width="16" height="15" viewBox="0 0 16 15" fill="none" xmlns="http://www.w3.org/2000/svg">
<path fill-rule="evenodd" clip-rule="evenodd" d="M15.4883 7.54531C15.4883 3.37855 12.13 0 7.98828 0C3.84654 0 0.488281 3.37855 0.488281 7.54531C0.488281 11.3112 3.23047 14.4328 6.81641 14.9993V9.72704H4.91161V7.54531H6.81641V5.88298C6.81641 3.99227 7.93638 2.94705 9.64933 2.94705C10.47 2.94705 11.3285 3.09459 11.3285 3.09459V4.95161H10.3823C9.45112 4.95161 9.15982 5.533 9.15982 6.13056V7.54531H11.2397L10.9076 9.72704H9.16016V15C12.7461 14.4338 15.4883 11.3122 15.4883 7.54531V7.54531Z" fill="#1E1E1E"/>
</svg>
