<svg width="231" height="154" viewBox="0 0 231 154" fill="none" xmlns="http://www.w3.org/2000/svg">
<rect width="231" height="154" fill="#545454"/>
<g clip-path="url(#clip0_0_1)">
<rect width="1920" height="13547" transform="translate(-800 -1338)" fill="white"/>
<path d="M-800.262 -313.105H1120V613.231H-800.262V-313.105Z" fill="#0B0B0B"/>
<path d="M200.268 24.5032L104.22 13.5137L103.78 30.8771L200.268 39.8884V24.5032Z" fill="#1B1B1B" stroke="#1E1E1E"/>
<path d="M15.3057 35.289L103.756 13.4883L210.352 26.5114" stroke="white"/>
<path d="M0.116577 88.2732L103.274 71.8496L208.879 81.2085V99.8137" stroke="white"/>
<path d="M3.6489 54.7162L103.756 31.334L210.351 41.463" stroke="white"/>
<path d="M17.0718 102.757L103.274 89.6973L209.374 99.5247" stroke="white"/>
<path d="M27.8658 148.08L28.3228 120.041L76.7956 115.199L77.7096 149.383" stroke="white"/>
<path d="M103.932 13.2539V72.0989" stroke="white"/>
<path d="M103.449 89.9453V150.797" stroke="white"/>
<path d="M59.3016 152.717L103.5 150.412L159.539 152.843" stroke="white"/>
<path d="M210.172 26.4668V41.3987" stroke="white"/>
<path d="M201.138 40.8027V80.2087" stroke="white"/>
<path d="M201.491 98.3789V151.855" stroke="white"/>
<path d="M123.931 115.237V105.924L190.415 113.426V121.187L123.931 115.237Z" fill="#D9D9D9"/>
<circle cx="199.5" cy="32.3926" r="31.5" fill="#FFA68B"/>
<path d="M209.295 24.0781H203.045L195.911 30.9984C195.778 31.1309 195.677 31.2916 195.615 31.4685C195.553 31.6455 195.531 31.8341 195.552 32.0205C195.573 32.2069 195.635 32.3862 195.735 32.5452C195.834 32.7042 195.968 32.8387 196.127 32.939C198.862 34.6874 202.576 34.5671 205.545 31.578L211.795 36.578L214.295 34.078" stroke="#0B0B0B" stroke-width="1.87498" stroke-linecap="round" stroke-linejoin="round"/>
<path d="M211.795 36.5781L205.545 42.828L195.545 40.328L186.795 34.0781" stroke="#0B0B0B" stroke-width="1.87498" stroke-linecap="round" stroke-linejoin="round"/>
<path d="M189.295 42.8281L193.045 45.3281L198.045 46.5781" stroke="#0B0B0B" stroke-width="1.87498" stroke-linecap="round" stroke-linejoin="round"/>
<path d="M191.795 24.0781L200.545 21.5781L209.295 24.0781" stroke="#0B0B0B" stroke-width="1.87498" stroke-linecap="round" stroke-linejoin="round"/>
<path d="M186.236 22.6956L182.355 30.458C182.281 30.6049 182.238 30.7649 182.226 30.9287C182.214 31.0926 182.235 31.2572 182.287 31.413C182.339 31.5689 182.421 31.7129 182.529 31.837C182.636 31.9611 182.767 32.0627 182.914 32.1361L186.796 34.0767L191.795 24.0768L187.914 22.1362C187.767 22.0627 187.607 22.0188 187.444 22.0071C187.28 21.9954 187.115 22.0161 186.959 22.0681C186.803 22.12 186.659 22.2022 186.535 22.3098C186.411 22.4175 186.31 22.5486 186.236 22.6956Z" stroke="#0B0B0B" stroke-width="1.87498" stroke-linecap="round" stroke-linejoin="round"/>
<path d="M213.176 22.1362L209.295 24.0768L214.295 34.0767L218.176 32.1361C218.323 32.0627 218.454 31.9611 218.562 31.837C218.669 31.7129 218.752 31.5689 218.804 31.413C218.856 31.2572 218.876 31.0926 218.865 30.9287C218.853 30.7649 218.809 30.6049 218.735 30.458L214.854 22.6956C214.781 22.5486 214.679 22.4175 214.555 22.3098C214.431 22.2022 214.287 22.12 214.131 22.0681C213.975 22.0161 213.811 21.9954 213.647 22.0071C213.483 22.0188 213.323 22.0627 213.176 22.1362Z" stroke="#0B0B0B" stroke-width="1.87498" stroke-linecap="round" stroke-linejoin="round"/>
</g>
<defs>
<clipPath id="clip0_0_1">
<rect width="1920" height="13547" fill="white" transform="translate(-800 -1338)"/>
</clipPath>
</defs>
</svg>
