<svg width="189" height="190" viewBox="0 0 189 190" fill="none" xmlns="http://www.w3.org/2000/svg">
<rect width="189" height="190" fill="#545454"/>
<g clip-path="url(#clip0_0_1)">
<rect width="1920" height="13547" transform="translate(-1270 -1326)" fill="white"/>
<path d="M-1270.26 -301.105H649.995V625.231H-1270.26V-301.105Z" fill="#0B0B0B"/>
<path d="M130.818 188.259H2.73131C1.58502 188.259 0.659363 187.336 0.659363 186.193V17.3909C0.659363 16.2475 1.58502 15.3242 2.73131 15.3242H130.818C131.964 15.3242 132.89 16.2475 132.89 17.3909V186.197C132.89 187.336 131.959 188.259 130.818 188.259Z" fill="#252525"/>
<path d="M139.892 8.33398H7.66174V181.274H139.892V8.33398Z" fill="#252525"/>
<path d="M146.899 1.34961H14.6689V174.289H146.899V1.34961Z" fill="#1B1B1B"/>
<path d="M14.6689 1.34961V174.289" stroke="white" stroke-miterlimit="10" stroke-linecap="round" stroke-linejoin="round"/>
<path d="M147.239 1.31641L14.6859 1.31641" stroke="white" stroke-miterlimit="10" stroke-linecap="round" stroke-linejoin="round"/>
<path d="M7.6618 8.33594L7.6618 141.143" stroke="white" stroke-miterlimit="10" stroke-linecap="round" stroke-linejoin="round"/>
<path d="M0.659363 17.3906V186.197" stroke="white" stroke-miterlimit="10" stroke-linecap="round" stroke-linejoin="round"/>
<path d="M146.894 174.289H85.115" stroke="#0B0B0B" stroke-width="2" stroke-miterlimit="10" stroke-linecap="round" stroke-linejoin="round"/>
<path d="M139.892 181.275H60.4771" stroke="#0B0B0B" stroke-width="2" stroke-miterlimit="10" stroke-linecap="round" stroke-linejoin="round"/>
<path d="M130.818 188.26H34.0311" stroke="#0B0B0B" stroke-width="2" stroke-miterlimit="10" stroke-linecap="round" stroke-linejoin="round"/>
<g opacity="0.5">
<path d="M130.021 123.134H98.3332C97.7529 123.134 97.2828 122.666 97.2828 122.087C97.2828 121.508 97.7529 121.039 98.3332 121.039H130.021C130.602 121.039 131.072 121.508 131.072 122.087C131.072 122.661 130.597 123.134 130.021 123.134Z" fill="white"/>
</g>
<g opacity="0.5">
<path d="M128.971 66.6423H115.029C114.448 66.6423 113.978 66.1735 113.978 65.5946C113.978 65.0157 114.448 64.5469 115.029 64.5469H128.971C129.552 64.5469 130.022 65.0157 130.022 65.5946C130.022 66.1735 129.552 66.6423 128.971 66.6423Z" fill="white"/>
<path d="M104.53 66.6423H35.0862C34.5059 66.6423 34.0359 66.1735 34.0359 65.5946C34.0359 65.0157 34.5059 64.5469 35.0862 64.5469H104.53C105.11 64.5469 105.58 65.0157 105.58 65.5946C105.58 66.1735 105.11 66.6423 104.53 66.6423Z" fill="white"/>
<path d="M128.971 73.6325H68.5251C67.9448 73.6325 67.4747 73.1637 67.4747 72.5848C67.4747 72.0059 67.9448 71.5371 68.5251 71.5371H128.971C129.551 71.5371 130.021 72.0059 130.021 72.5848C130.021 73.1589 129.551 73.6325 128.971 73.6325Z" fill="white"/>
<path d="M55.8872 73.6325H35.0862C34.5059 73.6325 34.0359 73.1637 34.0359 72.5848C34.0359 72.0059 34.5059 71.5371 35.0862 71.5371H55.892C56.4723 71.5371 56.9424 72.0059 56.9424 72.5848C56.9376 73.1589 56.4675 73.6325 55.8872 73.6325Z" fill="white"/>
<path d="M128.971 80.6169H35.0862C34.5059 80.6169 34.0359 80.1481 34.0359 79.5692C34.0359 78.9903 34.5059 78.5215 35.0862 78.5215H128.971C129.551 78.5215 130.021 78.9903 130.021 79.5692C130.021 80.1481 129.551 80.6169 128.971 80.6169Z" fill="white"/>
<path d="M128.971 87.6013H105.964C105.384 87.6013 104.914 87.1324 104.914 86.5536C104.914 85.9747 105.384 85.5059 105.964 85.5059H128.971C129.551 85.5059 130.021 85.9747 130.021 86.5536C130.021 87.1324 129.551 87.6013 128.971 87.6013Z" fill="white"/>
<path d="M95.7097 87.6013H35.0862C34.5059 87.6013 34.0359 87.1324 34.0359 86.5536C34.0359 85.9747 34.5059 85.5059 35.0862 85.5059H95.7097C96.2901 85.5059 96.7601 85.9747 96.7601 86.5536C96.7601 87.1324 96.2853 87.6013 95.7097 87.6013Z" fill="white"/>
<path d="M128.971 94.5915H35.0862C34.5059 94.5915 34.0359 94.1227 34.0359 93.5438C34.0359 92.9649 34.5059 92.4961 35.0862 92.4961H128.971C129.551 92.4961 130.021 92.9649 130.021 93.5438C130.021 94.1227 129.551 94.5915 128.971 94.5915Z" fill="white"/>
</g>
<g opacity="0.5">
<path d="M66.7745 123.133H35.0862C34.5059 123.133 34.0359 122.664 34.0359 122.085C34.0359 121.506 34.5059 121.037 35.0862 121.037H66.7745C67.3548 121.037 67.8249 121.506 67.8249 122.085C67.8249 122.659 67.3548 123.133 66.7745 123.133Z" fill="white"/>
</g>
<g opacity="0.5">
<path d="M110.76 119.712C109.312 119.712 107.858 118.971 107.081 117.732C107.072 117.717 107.062 117.703 107.053 117.688C106.242 117.818 105.412 117.875 104.578 117.784C102.813 117.593 100.755 116.521 100.132 114.56C99.3596 112.129 101.129 109.876 101.921 109.02C104.664 106.068 108.851 104.566 112.851 105.092C113.168 105.135 113.393 105.422 113.35 105.738C113.307 106.054 113.019 106.274 112.703 106.235C109.072 105.757 105.268 107.125 102.774 109.804C101.403 111.278 100.832 112.928 101.24 114.215C101.705 115.679 103.316 116.488 104.707 116.636C105.336 116.703 105.964 116.674 106.592 116.593C106.237 115.201 106.587 113.627 107.585 112.569C108.539 111.555 109.983 111.129 111.177 111.522C111.868 111.747 112.477 112.287 112.808 112.967C113.11 113.593 113.158 114.263 112.938 114.861C112.477 116.115 111.187 116.636 109.858 117.009C109.355 117.153 108.832 117.301 108.295 117.43C109.077 118.353 110.458 118.784 111.614 118.43C112.458 118.167 113.163 117.564 113.906 116.928C114.386 116.516 114.88 116.091 115.436 115.741C116.496 115.076 117.921 114.899 118.986 115.311C119.12 115.363 119.245 115.421 119.36 115.488C119.652 114.918 120.18 114.469 120.784 114.287C121.854 113.962 122.938 114.311 123.854 114.698L124.165 114.832C124.885 115.143 125.547 115.44 126.252 115.426C127.254 115.416 128.17 114.78 129.173 114.014C129.427 113.823 129.791 113.871 129.983 114.124C130.175 114.378 130.127 114.741 129.873 114.933C128.966 115.622 127.729 116.564 126.261 116.583C125.336 116.588 124.501 116.239 123.705 115.894L123.403 115.765C122.679 115.459 121.839 115.177 121.12 115.397C120.789 115.497 120.477 115.784 120.348 116.119C120.309 116.22 120.271 116.354 120.29 116.492C120.338 116.598 120.381 116.708 120.41 116.818C120.492 117.1 120.348 117.392 120.079 117.507C119.81 117.621 119.499 117.516 119.355 117.263C119.283 117.143 119.23 117.014 119.192 116.885C119.062 116.665 118.856 116.502 118.573 116.392C117.854 116.119 116.798 116.258 116.055 116.722C115.571 117.023 115.129 117.406 114.664 117.803C113.863 118.492 113.033 119.2 111.959 119.535C111.571 119.655 111.163 119.712 110.76 119.712ZM110.256 112.536C109.619 112.536 108.923 112.837 108.429 113.364C107.695 114.143 107.446 115.349 107.739 116.382C108.343 116.244 108.947 116.076 109.542 115.904C110.573 115.612 111.571 115.234 111.854 114.469C111.964 114.167 111.935 113.813 111.767 113.474C111.571 113.067 111.216 112.751 110.818 112.622C110.64 112.565 110.453 112.536 110.256 112.536Z" fill="white"/>
</g>
<path opacity="0.5" d="M40.3476 115.938C39.9879 115.675 39.6426 115.388 39.3021 115.096C39.4268 114.804 39.5467 114.512 39.6666 114.225C39.8584 113.756 40.0407 113.311 40.2421 112.876C40.3764 112.589 40.2517 112.244 39.9592 112.11C39.6666 111.976 39.3261 112.101 39.1918 112.393C38.9807 112.852 38.7841 113.33 38.597 113.79C38.5347 113.948 38.4675 114.105 38.4052 114.258C38.0071 113.861 37.6186 113.455 37.2637 113.024C37.0575 112.78 36.693 112.742 36.4484 112.948C36.2038 113.153 36.1702 113.517 36.3716 113.761C36.8464 114.335 37.3596 114.88 37.9016 115.392C37.5994 116.019 37.2541 116.607 36.8033 117.124C36.5922 117.363 36.621 117.732 36.8608 117.937C36.9711 118.033 37.1054 118.081 37.2397 118.081C37.4028 118.081 37.5611 118.014 37.6762 117.88C38.127 117.359 38.4867 116.784 38.7937 116.186C39.0767 116.421 39.3644 116.646 39.657 116.866C39.7625 116.942 39.8824 116.981 40.0023 116.981C40.1798 116.981 40.3572 116.899 40.4675 116.746C40.6594 116.493 40.6066 116.129 40.3476 115.938Z" fill="white"/>
<g opacity="0.5">
<path d="M101.043 144.38C100.463 142.883 99.0095 141.82 97.3021 141.82C95.5995 141.82 94.1414 142.883 93.5611 144.38H91.0287V152.781H88.3525V137.051H87.4652V135.649H86.2901V134.544H80.9903V135.649H79.8201V137.051H78.9328V142.562H72.0791V152.781H69.8872V138.663H68.6882V137.051H65.4748V134.539H64.8752V137.051H61.6618V138.663H60.4628V152.781V158.498H69.8824H72.0743H78.928H81.4939H88.3477H103.566V155.398V152.781V144.38H101.043Z" fill="white"/>
</g>
<path d="M82.0262 52.8409C80.9903 52.8409 80.2181 51.9271 79.5418 51.1234C79.115 50.6163 78.6306 50.0422 78.2613 49.9417C77.8584 49.8317 77.1294 50.0996 76.4819 50.3292C75.4651 50.6976 74.4099 51.0755 73.5418 50.578C72.6641 50.0709 72.4675 48.961 72.2757 47.8893C72.1558 47.2243 72.0263 46.4685 71.7385 46.1862C71.4555 45.9039 70.6977 45.77 70.031 45.6504C68.9567 45.459 67.844 45.2629 67.3356 44.3874C66.832 43.5215 67.2157 42.4737 67.585 41.4547C67.82 40.8137 68.0838 40.0817 67.9735 39.6798C67.8728 39.3115 67.2972 38.8283 66.7888 38.4025C65.9831 37.7279 65.067 36.9625 65.067 35.9243C65.067 34.891 65.9831 34.1207 66.7888 33.4462C67.2972 33.0204 67.8728 32.5372 67.9735 32.1688C68.079 31.767 67.8152 31.0398 67.585 30.3939C67.2157 29.3797 66.8368 28.3272 67.3356 27.4613C67.844 26.5858 68.9567 26.3897 70.031 26.1983C70.6977 26.0787 71.4507 25.9495 71.7385 25.6625C72.0215 25.3802 72.1558 24.6243 72.2757 23.9593C72.4675 22.8877 72.6641 21.7778 73.5418 21.2707C74.4052 20.7684 75.4603 21.1511 76.4819 21.5195C77.1246 21.7491 77.8536 22.017 78.2613 21.907C78.6354 21.8065 79.115 21.2324 79.5418 20.7253C80.2181 19.9216 80.9855 19.0078 82.0262 19.0078C83.067 19.0078 83.8344 19.9216 84.5107 20.7253C84.9375 21.2324 85.4219 21.8065 85.7912 21.907C86.1941 22.017 86.9231 21.7539 87.5706 21.5195C88.5874 21.1511 89.6426 20.7731 90.5107 21.2755C91.3884 21.7826 91.585 22.8925 91.7768 23.9689C91.8968 24.6339 92.0263 25.3898 92.314 25.672C92.597 25.9543 93.3548 26.0883 94.0215 26.2079C95.0958 26.3992 96.2133 26.5954 96.7169 27.4709C97.2205 28.3368 96.8368 29.3845 96.4675 30.4035C96.2325 31.0446 95.9687 31.7765 96.079 32.1784C96.1797 32.5468 96.7553 33.03 97.2637 33.4557C98.0694 34.1303 98.9855 34.8958 98.9855 35.9339C98.9855 36.9673 98.0694 37.7375 97.2637 38.4121C96.7553 38.8378 96.1797 39.321 96.079 39.6894C95.9735 40.0913 96.2373 40.8184 96.4675 41.4643C96.8368 42.4785 97.2157 43.531 96.7169 44.3969C96.2085 45.2724 95.0958 45.4686 94.0215 45.6599C93.3548 45.7795 92.597 45.9087 92.314 46.1958C92.031 46.478 91.8968 47.2339 91.7768 47.8989C91.585 48.9705 91.3884 50.0804 90.5107 50.5875C89.6474 51.0899 88.5922 50.7072 87.5706 50.3388C86.9279 50.1044 86.1941 49.846 85.7912 49.9513C85.4219 50.0517 84.9375 50.6258 84.5107 51.1329C83.8344 51.9271 83.067 52.8409 82.0262 52.8409ZM78.0454 48.6069C78.2325 48.6069 78.4195 48.6261 78.597 48.6739C79.3692 48.8796 79.9687 49.5925 80.5442 50.2766C81.0382 50.865 81.5946 51.53 82.0215 51.53C82.4483 51.53 83.0047 50.865 83.4987 50.2766C84.079 49.5877 84.6737 48.8796 85.4459 48.6739C86.2421 48.4586 87.139 48.7839 88.0071 49.0949C88.6737 49.3341 89.5035 49.6355 89.844 49.4394C90.1941 49.2384 90.3428 48.3964 90.4771 47.6549C90.6354 46.7603 90.7984 45.8322 91.3788 45.2533C91.9543 44.6792 92.8848 44.5165 93.7864 44.3539C94.5298 44.2247 95.374 44.0716 95.5754 43.7224C95.7721 43.3827 95.4699 42.5551 95.2301 41.8901C94.9183 41.0242 94.5922 40.1343 94.808 39.3354C95.0143 38.5651 95.7289 37.9671 96.4147 37.393C97.0047 36.9003 97.6713 36.3453 97.6713 35.9195C97.6713 35.4938 97.0047 34.9388 96.4147 34.446C95.7241 33.8672 95.0143 33.274 94.808 32.5037C94.5922 31.7048 94.9183 30.8101 95.2301 29.949C95.4699 29.284 95.7721 28.4564 95.5754 28.1167C95.374 27.7675 94.5298 27.6192 93.7864 27.4852C92.8896 27.3273 91.9591 27.1647 91.3788 26.5858C90.8032 26.0117 90.6402 25.0836 90.4771 24.1842C90.3476 23.4427 90.1941 22.6007 89.844 22.3997C89.5035 22.2036 88.6737 22.505 88.0071 22.7442C87.139 23.0551 86.2469 23.3805 85.4459 23.1652C84.6737 22.9595 84.079 22.2466 83.4987 21.5625C83.0047 20.9741 82.4483 20.3091 82.0215 20.3091C81.5946 20.3091 81.0382 20.9741 80.5442 21.5625C79.9639 22.2514 79.3692 22.9595 78.597 23.1652C77.796 23.3805 76.904 23.0551 76.0358 22.7442C75.3692 22.505 74.5394 22.2036 74.1989 22.3997C73.8488 22.6007 73.7001 23.4427 73.5658 24.1842C73.4075 25.0836 73.2445 26.0069 72.6641 26.5858C72.0886 27.1599 71.1581 27.3225 70.2613 27.4852C69.5179 27.6144 68.6737 27.7675 68.4675 28.1167C68.2709 28.4564 68.573 29.284 68.8128 29.949C69.1246 30.8149 69.4507 31.7048 69.2349 32.5037C69.0286 33.274 68.314 33.872 67.6282 34.446C67.0382 34.9388 66.3716 35.4938 66.3716 35.9195C66.3716 36.3453 67.0382 36.9003 67.6282 37.393C68.3188 37.9719 69.0286 38.5651 69.2349 39.3354C69.4507 40.1343 69.1246 41.0289 68.8128 41.8901C68.573 42.5551 68.2709 43.3827 68.4675 43.7224C68.6689 44.0716 69.5131 44.2199 70.2565 44.3539C71.1581 44.5118 72.0838 44.6744 72.6641 45.2533C73.2397 45.8274 73.4075 46.7555 73.5658 47.6549C73.6953 48.3964 73.844 49.2384 74.1989 49.4394C74.5346 49.6355 75.3692 49.3341 76.0358 49.0949C76.7073 48.8557 77.398 48.6069 78.0454 48.6069Z" fill="white"/>
<path d="M91.8487 35.9239C91.8487 36.7372 90.314 37.3352 90.1125 38.0863C89.9063 38.8613 90.9279 40.1482 90.5346 40.8228C90.1365 41.5117 88.5058 41.2677 87.9447 41.8227C87.3835 42.3824 87.6329 44.009 86.9423 44.4061C86.2612 44.7984 84.9758 43.7746 84.1989 43.9851C83.4459 44.186 82.8464 45.7169 82.031 45.7169C81.2157 45.7169 80.6161 44.186 79.8631 43.9851C79.0862 43.7793 77.796 44.7984 77.1197 44.4061C76.4291 44.009 76.6785 42.3824 76.1173 41.8227C75.5562 41.2629 73.9255 41.5069 73.5274 40.8228C73.1341 40.1434 74.1605 38.8613 73.9495 38.0863C73.748 37.3352 72.2133 36.7372 72.2133 35.9239C72.2133 35.1106 73.7528 34.5126 73.9495 33.7615C74.1557 32.9865 73.1341 31.6995 73.5274 31.025C73.9255 30.3361 75.5562 30.5801 76.1173 30.0251C76.6785 29.4654 76.4339 27.8388 77.1197 27.4417C77.8008 27.0494 79.0862 28.0732 79.8631 27.8627C80.6161 27.6618 81.2157 26.1309 82.031 26.1309C82.8464 26.1309 83.4459 27.6618 84.1989 27.8627C84.9758 28.0684 86.2612 27.0494 86.9423 27.4417C87.6329 27.8388 87.3883 29.4654 87.9447 30.0251C88.5058 30.5848 90.1365 30.3361 90.5346 31.025C90.9279 31.7043 89.9015 32.9865 90.1125 33.7615C90.3092 34.5126 91.8487 35.1106 91.8487 35.9239Z" fill="white"/>
<circle cx="157.211" cy="147.031" r="31.5" fill="#95D5ED"/>
<path d="M154.22 143.119H162.72" stroke="#252525" stroke-width="1.5" stroke-linecap="round" stroke-linejoin="round"/>
<path d="M154.22 147.369H162.72" stroke="#252525" stroke-width="1.5" stroke-linecap="round" stroke-linejoin="round"/>
<path d="M154.22 151.619H158.47" stroke="#252525" stroke-width="1.5" stroke-linecap="round" stroke-linejoin="round"/>
<path d="M162.281 159.057H147.845C147.563 159.057 147.293 158.945 147.094 158.745C146.895 158.546 146.783 158.276 146.783 157.994V136.744C146.783 136.462 146.895 136.192 147.094 135.993C147.293 135.794 147.563 135.682 147.845 135.682H169.095C169.377 135.682 169.647 135.794 169.847 135.993C170.046 136.192 170.158 136.462 170.158 136.744V151.18C170.158 151.461 170.046 151.731 169.847 151.93L163.031 158.746C162.832 158.945 162.562 159.057 162.281 159.057Z" stroke="#252525" stroke-width="1.5" stroke-linecap="round" stroke-linejoin="round"/>
<path d="M170.062 151.617H162.72V158.959" stroke="#252525" stroke-width="1.5" stroke-linecap="round" stroke-linejoin="round"/>
</g>
<defs>
<clipPath id="clip0_0_1">
<rect width="1920" height="13547" fill="white" transform="translate(-1270 -1326)"/>
</clipPath>
</defs>
</svg>
