<svg width="209" height="174" viewBox="0 0 209 174" fill="none" xmlns="http://www.w3.org/2000/svg">
<path d="M144.729 2.90234V73.0581H167.58V22.9023" stroke="white"/>
<path d="M112.461 1.52148L25.06 21.4668L32.0072 29.5346L89.8262 14.5196L26.4046 88.9223L9.59679 90.9393L0.184387 101.696L29.7662 98.5588L112.461 1.52148Z" fill="#1B1B1B"/>
<path d="M31.3349 29.3103L89.8261 14.5195L25.8957 88.8451L9.06525 90.9872" stroke="white"/>
<path d="M29.8706 98.1774L112.364 1.50271L194.857 98.1774H29.8706Z" fill="#0B0B0B" stroke="white"/>
<path d="M112.478 1.27344L24.3384 21.5447" stroke="white"/>
<path d="M30.4418 97.998L1.12964 101.762" stroke="white"/>
<path d="M168.168 173.897V98.1953H56.5595V173.897" stroke="white"/>
<path d="M100.687 134.562H124.038L123.827 173.188L100.687 173.395V134.562Z" fill="white" stroke="white"/>
<circle cx="112.364" cy="66.9278" r="13.0762" stroke="white"/>
<circle cx="168.5" cy="90.9473" r="31.5" fill="#F9E492"/>
<g clip-path="url(#clip0_272_4921)">
<path d="M169.064 76.4043V79.4143" stroke="black" stroke-width="2" stroke-linecap="round" stroke-linejoin="round"/>
<path d="M169.064 99.4805V102.49" stroke="black" stroke-width="2" stroke-linecap="round" stroke-linejoin="round"/>
<path d="M176.087 84.4307C176.087 83.7719 175.957 83.1196 175.705 82.5109C175.453 81.9023 175.084 81.3492 174.618 80.8834C174.152 80.4176 173.599 80.048 172.99 79.7959C172.382 79.5438 171.729 79.4141 171.07 79.4141H167.057C165.727 79.4141 164.451 79.9426 163.51 80.8834C162.569 81.8242 162.04 83.1002 162.04 84.4307C162.04 85.7612 162.569 87.0372 163.51 87.978C164.451 88.9188 165.727 89.4473 167.057 89.4473H172.074C173.404 89.4473 174.68 89.9759 175.621 90.9167C176.562 91.8575 177.09 93.1335 177.09 94.464C177.09 95.7945 176.562 97.0705 175.621 98.0113C174.68 98.9521 173.404 99.4806 172.074 99.4806H166.054C164.723 99.4806 163.447 98.9521 162.506 98.0113C161.566 97.0705 161.037 95.7945 161.037 94.464" stroke="black" stroke-width="2" stroke-linecap="round" stroke-linejoin="round"/>
</g>
<defs>
<clipPath id="clip0_272_4921">
<rect width="30" height="30" fill="white" transform="translate(154.064 74.4473)"/>
</clipPath>
</defs>
</svg>
