<svg width="15" height="14" viewBox="0 0 15 14" fill="none" xmlns="http://www.w3.org/2000/svg">
<path d="M14.0276 9.0389L10.7776 7.73538C10.6099 7.66469 10.4258 7.63537 10.2428 7.65019C10.0597 7.66502 9.88363 7.7235 9.73125 7.82011L7.99191 8.90855C6.93185 8.4243 6.07357 7.62164 5.55269 6.62738L6.703 4.97191C6.80504 4.82844 6.86735 4.66328 6.88429 4.49141C6.90124 4.31954 6.87227 4.14642 6.80002 3.98775L5.40716 0.930991C5.30997 0.724587 5.1454 0.552668 4.93732 0.440165C4.72924 0.327661 4.48847 0.280423 4.24992 0.3053C3.31413 0.420599 2.45471 0.851588 1.83142 1.51814C1.20814 2.18468 0.863409 3.04143 0.861328 3.92909C0.861328 9.10408 5.33787 13.3145 10.84 13.3145C11.7838 13.3125 12.6947 12.9883 13.4034 12.402C14.112 11.8158 14.5703 11.0075 14.6929 10.1273C14.7193 9.90298 14.6691 9.67652 14.5495 9.48081C14.4299 9.2851 14.2471 9.13031 14.0276 9.0389Z" fill="#1E1E1E"/>
</svg>
