<svg width="19" height="14" viewBox="0 0 19 14" fill="none" xmlns="http://www.w3.org/2000/svg">
<path d="M15.9708 0.791016H3.03991C2.46852 0.791572 1.92071 0.99833 1.51667 1.36592C1.11263 1.73352 0.885377 2.23192 0.884766 2.75178V11.1551C0.885377 11.6749 1.11263 12.1733 1.51667 12.5409C1.92071 12.9085 2.46852 13.1153 3.03991 13.1158H15.9708C16.5422 13.1153 17.09 12.9085 17.494 12.5409C17.8981 12.1733 18.1253 11.6749 18.126 11.1551V2.75178C18.1253 2.23192 17.8981 1.73352 17.494 1.36592C17.09 0.99833 16.5422 0.791572 15.9708 0.791016ZM15.4251 4.03433L9.88328 7.95586C9.77521 8.03229 9.64224 8.07378 9.50536 8.07378C9.36848 8.07378 9.2355 8.03229 9.12744 7.95586L3.58563 4.03433C3.52052 3.98959 3.46583 3.93353 3.42474 3.8694C3.38365 3.80527 3.35698 3.73435 3.34627 3.66076C3.33557 3.58716 3.34105 3.51237 3.36239 3.44072C3.38373 3.36908 3.42052 3.302 3.4706 3.2434C3.52068 3.1848 3.58306 3.13583 3.65412 3.09936C3.72518 3.06288 3.8035 3.03961 3.88453 3.03091C3.96556 3.02221 4.04768 3.02825 4.12613 3.04867C4.20457 3.0691 4.27777 3.1035 4.34147 3.14988L9.50536 6.80391L14.6692 3.14988C14.7984 3.06117 14.9607 3.02226 15.1211 3.04157C15.2815 3.06088 15.4271 3.13686 15.5264 3.25308C15.6258 3.3693 15.6708 3.51641 15.6518 3.66261C15.6329 3.80881 15.5514 3.94234 15.4251 4.03433Z" fill="#1E1E1E"/>
</svg>
