<svg width="15" height="14" viewBox="0 0 15 14" fill="none" xmlns="http://www.w3.org/2000/svg">
<path d="M13.2065 0H1.52242C0.883983 0 0.326172 0.459375 0.326172 1.09031V12.8003C0.326172 13.4347 0.883983 14 1.52242 14H13.203C13.8449 14 14.3261 13.4309 14.3261 12.8003V1.09031C14.3299 0.459375 13.8449 0 13.2065 0ZM4.66585 11.6697H2.66023V5.43375H4.66585V11.6697ZM3.73242 4.48562H3.71804C3.07617 4.48562 2.66054 4.00781 2.66054 3.40969C2.66054 2.80063 3.08711 2.33406 3.74335 2.33406C4.3996 2.33406 4.80117 2.79719 4.81554 3.40969C4.81523 4.00781 4.3996 4.48562 3.73242 4.48562ZM11.9958 11.6697H9.99022V8.26C9.99022 7.44313 9.69835 6.885 8.97272 6.885C8.41835 6.885 8.09022 7.26 7.94428 7.62531C7.8896 7.75656 7.87491 7.93531 7.87491 8.11781V11.6697H5.86929V5.43375H7.87491V6.30156C8.16678 5.88594 8.62272 5.28781 9.68366 5.28781C11.0002 5.28781 11.9962 6.15563 11.9962 8.02656L11.9958 11.6697Z" fill="black"/>
</svg>
