<svg width="61" height="49" viewBox="0 0 61 49" fill="none" xmlns="http://www.w3.org/2000/svg">
<path id="&#226;&#128;&#156;" opacity="0.47" d="M22.2834 1.76273L22.0651 1.35767L21.6433 1.54175C15.1838 4.36107 10.0129 8.36245 6.14613 13.5497L6.14516 13.551C2.36542 18.6563 0.5 25.3923 0.5 33.7121V48V48.5H1H26.7179H27.2179V48V27.9621V27.5476L26.8106 27.4708L18.0049 25.8111C18.2663 22.6649 19.0789 19.6217 20.4447 16.6793C22.0029 13.5649 23.6704 10.7427 25.4463 8.21141L25.6236 7.9587L25.4772 7.68697L22.2834 1.76273ZM55.5655 1.76273L55.3471 1.35767L54.9254 1.54175C48.4658 4.36107 43.295 8.36245 39.4282 13.5497L39.4272 13.551C35.6475 18.6563 33.7821 25.3923 33.7821 33.7121V48V48.5H34.2821H60H60.5V48V27.9621V27.5476L60.0926 27.4708L51.2869 25.8111C51.5484 22.6649 52.361 19.6217 53.7268 16.6793C55.285 13.5649 56.9524 10.7427 58.7284 8.21141L58.9057 7.9587L58.7592 7.68697L55.5655 1.76273Z" stroke="#0B0B0B"/>
</svg>
