<svg width="17" height="16" viewBox="0 0 17 16" fill="none" xmlns="http://www.w3.org/2000/svg">
<path d="M11.5808 1.29238C12.4706 1.29493 13.3233 1.63621 13.9525 2.24168C14.5817 2.84714 14.9363 3.66759 14.939 4.52384V10.9861C14.9363 11.8423 14.5817 12.6628 13.9525 13.2682C13.3233 13.8737 12.4706 14.215 11.5808 14.2175H4.86525C3.97543 14.215 3.12282 13.8737 2.49362 13.2682C1.86442 12.6628 1.50976 11.8423 1.50711 10.9861V4.52384C1.50976 3.66759 1.86442 2.84714 2.49362 2.24168C3.12282 1.63621 3.97543 1.29493 4.86525 1.29238H11.5808ZM11.5808 0H4.86525C2.27954 0 0.164062 2.03568 0.164062 4.52384V10.9861C0.164062 13.4742 2.27954 15.5099 4.86525 15.5099H11.5808C14.1665 15.5099 16.282 13.4742 16.282 10.9861V4.52384C16.282 2.03568 14.1665 0 11.5808 0Z" fill="white"/>
<path d="M12.588 4.52468C12.3888 4.52468 12.194 4.46782 12.0283 4.36131C11.8627 4.25479 11.7336 4.1034 11.6573 3.92627C11.5811 3.74914 11.5611 3.55423 11.6 3.36619C11.6389 3.17815 11.7348 3.00543 11.8757 2.86986C12.0166 2.73429 12.1961 2.64197 12.3915 2.60456C12.5869 2.56716 12.7894 2.58636 12.9735 2.65973C13.1576 2.7331 13.3149 2.85734 13.4256 3.01675C13.5363 3.17617 13.5954 3.36358 13.5954 3.55531C13.5957 3.68268 13.5698 3.80886 13.5193 3.92659C13.4688 4.04433 13.3946 4.1513 13.301 4.24137C13.2074 4.33143 13.0962 4.40283 12.9738 4.45145C12.8515 4.50006 12.7204 4.52495 12.588 4.52468ZM8.22285 5.17069C8.75418 5.17069 9.27358 5.32231 9.71536 5.60636C10.1571 5.89041 10.5015 6.29415 10.7048 6.76652C10.9081 7.23888 10.9613 7.75866 10.8577 8.26012C10.754 8.76158 10.4982 9.2222 10.1225 9.58373C9.74675 9.94527 9.26807 10.1915 8.74695 10.2912C8.22583 10.391 7.68568 10.3398 7.19479 10.1441C6.70391 9.94845 6.28434 9.61712 5.98915 9.192C5.69396 8.76688 5.5364 8.26708 5.5364 7.75579C5.53717 7.07041 5.82045 6.4133 6.32409 5.92866C6.82773 5.44402 7.51059 5.17143 8.22285 5.17069ZM8.22285 3.87831C7.42589 3.87831 6.64683 4.10572 5.98419 4.53179C5.32154 4.95785 4.80507 5.56343 4.50009 6.27195C4.19511 6.98046 4.11531 7.76009 4.27079 8.51225C4.42627 9.26441 4.81004 9.95531 5.37357 10.4976C5.93711 11.0399 6.65509 11.4092 7.43674 11.5588C8.21838 11.7084 9.02857 11.6316 9.76487 11.3381C10.5012 11.0446 11.1305 10.5477 11.5732 9.91C12.016 9.27236 12.2523 8.52269 12.2523 7.75579C12.2523 6.72742 11.8278 5.74117 11.0721 5.014C10.3165 4.28683 9.29154 3.87831 8.22285 3.87831Z" fill="white"/>
</svg>
