<svg width="15" height="14" viewBox="0 0 15 14" fill="none" xmlns="http://www.w3.org/2000/svg">
<path d="M13.2103 0H1.52627C0.887829 0 0.330017 0.459375 0.330017 1.09031V12.8003C0.330017 13.4347 0.887829 14 1.52627 14H13.2069C13.8487 14 14.33 13.4309 14.33 12.8003V1.09031C14.3337 0.459375 13.8487 0 13.2103 0ZM4.6697 11.6697H2.66408V5.43375H4.6697V11.6697ZM3.73626 4.48562H3.72189C3.08001 4.48562 2.66439 4.00781 2.66439 3.40969C2.66439 2.80063 3.09095 2.33406 3.7472 2.33406C4.40345 2.33406 4.80501 2.79719 4.81939 3.40969C4.81907 4.00781 4.40345 4.48562 3.73626 4.48562ZM11.9997 11.6697H9.99406V8.26C9.99406 7.44313 9.70219 6.885 8.97657 6.885C8.42219 6.885 8.09407 7.26 7.94813 7.62531C7.89344 7.75656 7.87876 7.93531 7.87876 8.11781V11.6697H5.87313V5.43375H7.87876V6.30156C8.17063 5.88594 8.62657 5.28781 9.6875 5.28781C11.0041 5.28781 12 6.15563 12 8.02656L11.9997 11.6697Z" fill="white"/>
</svg>
