<svg width="133" height="29" viewBox="0 0 133 29" fill="none" xmlns="http://www.w3.org/2000/svg">
<path d="M0.523804 18.9659L9.91669 14.7852L15.3231 17.9206L16.4153 28.2069L9.75289 28.1521L10.7358 21.0008L9.58904 20.3408L3.96421 24.7415L0.523804 18.9659Z" fill="#72798D"/>
<path d="M15.9241 17.4821L24.225 23.5877L27.5015 17.7021L20.8389 15.0068V13.6866L27.5015 10.9362L24.225 5.10547L15.9241 11.2113V17.4821Z" fill="#72798D"/>
<path d="M15.3231 10.7161L16.4153 0.429688L9.75289 0.539707L10.7358 7.69064L9.58904 8.35072L3.9096 3.95016L0.523804 9.67091L9.91669 13.8515L15.3231 10.7161Z" fill="#72798D"/>
<path d="M49.7286 13.0858V22.7229H53.3142V10.4414H48.0923V13.0858H49.7286Z" fill="#72798D"/>
<path d="M49.6164 8.71556C49.9452 9.05913 50.4457 9.2309 51.1179 9.2309C51.7905 9.2309 52.2833 9.05913 52.5968 8.71556C52.9259 8.35682 53.0899 7.9086 53.0899 7.37086C53.0899 6.81799 52.9259 6.36977 52.5968 6.0262C52.2833 5.66763 51.7905 5.48828 51.1179 5.48828C50.4457 5.48828 49.9452 5.66763 49.6164 6.0262C49.3029 6.36977 49.1459 6.81799 49.1459 7.37086C49.1459 7.9086 49.3029 8.35682 49.6164 8.71556Z" fill="#72798D"/>
<path d="M37.2459 22.4554C38.2617 22.9185 39.5092 23.1502 40.9881 23.1502C42.3778 23.1502 43.5728 22.9333 44.5741 22.5002C45.5751 22.067 46.3443 21.4618 46.8822 20.6848C47.4353 19.8929 47.7114 18.9741 47.7114 17.9282C47.7114 16.9123 47.4505 16.0533 46.9274 15.351C46.4191 14.6339 45.7098 14.0736 44.7981 13.6703C43.8867 13.2518 42.8335 12.9904 41.6382 12.8859L40.3832 12.7738C39.6362 12.714 39.0983 12.5124 38.7696 12.1686C38.4409 11.8251 38.2765 11.4216 38.2765 10.9586C38.2765 10.5999 38.3664 10.2712 38.5452 9.97242C38.7248 9.65865 38.9935 9.41215 39.3523 9.23279C39.7258 9.05362 40.1815 8.96393 40.7194 8.96393C41.2869 8.96393 41.7577 9.06839 42.1312 9.27773C42.2134 9.32193 42.2915 9.36921 42.3648 9.41937L42.3826 9.43181C42.41 9.45076 42.437 9.47045 42.4633 9.49029C42.6902 9.66369 42.8709 9.86922 43.0053 10.1069C43.1992 10.4356 43.297 10.8016 43.297 11.2051H46.8822C46.8822 10.1292 46.6357 9.19544 46.143 8.40365C45.6499 7.59687 44.9402 6.97688 44.014 6.54343C43.1022 6.0952 42.0043 5.87109 40.7194 5.87109C39.494 5.87109 38.4335 6.0804 37.5369 6.49867C36.6406 6.90217 35.9384 7.48481 35.4305 8.24665C34.937 9.00868 34.6905 9.91271 34.6905 10.9586C34.6905 12.4077 35.1766 13.573 36.1475 14.4547C37.1185 15.3362 38.4186 15.8441 40.0471 15.9786L41.2798 16.0906C42.2804 16.1803 43.0053 16.382 43.4536 16.6956C43.9015 16.9945 44.1258 17.4053 44.1258 17.9282C44.1258 18.1686 44.0866 18.394 44.0077 18.6046C43.9492 18.7609 43.8693 18.909 43.7675 19.0489C43.528 19.3625 43.177 19.609 42.7139 19.7885C42.2508 19.9677 41.6755 20.0573 40.9881 20.0573C40.2263 20.0573 39.6062 19.9529 39.1283 19.7434C38.65 19.5194 38.2917 19.2281 38.0522 18.8697C37.8282 18.5109 37.7164 18.1226 37.7164 17.7041H34.153C34.153 18.765 34.4143 19.7064 34.937 20.5278C35.4601 21.3348 36.2297 21.9775 37.2459 22.4554Z" fill="#72798D"/>
<path d="M61.3147 22.8798C60.0746 22.8798 59.0736 22.7306 58.3117 22.4315C57.5495 22.118 56.9894 21.6023 56.6307 20.8852C56.2872 20.153 56.1154 19.1672 56.1154 17.927V13.0638H54.2552V10.4418H56.1154V7.125H59.4545V10.4418H63.0405V13.0638H59.4545V18.0616C59.4545 18.6442 59.6041 19.0924 59.9028 19.406C60.2163 19.7051 60.6572 19.8543 61.2251 19.8543H63.0405V22.8798H61.3147Z" fill="#72798D"/>
<path fill-rule="evenodd" clip-rule="evenodd" d="M67.3576 22.6108C68.1643 22.9691 69.0908 23.1487 70.1366 23.1487C71.1672 23.1487 72.079 22.9691 72.8708 22.6108C73.6626 22.2521 74.3201 21.7516 74.8428 21.1093C75.3659 20.4667 75.7172 19.7344 75.896 18.913H72.6017C72.4525 19.2865 72.1686 19.6 71.7502 19.854C71.3319 20.1079 70.7937 20.2353 70.1366 20.2353C69.7294 20.2353 69.3655 20.1868 69.0449 20.0905C68.801 20.0172 68.5822 19.9162 68.3886 19.787C67.9403 19.4883 67.6116 19.0696 67.4024 18.5319C67.3443 18.3787 67.2947 18.2185 67.2529 18.0516C67.2103 17.8825 67.1759 17.7066 67.1499 17.5234H76.1203V16.3132C76.1203 15.1926 75.8812 14.1617 75.4032 13.2205C74.925 12.2642 74.2301 11.4947 73.3191 10.9121C72.4225 10.3144 71.3168 10.0156 70.0019 10.0156C69.0009 10.0156 68.1043 10.195 67.3124 10.5535C66.5362 10.8971 65.8861 11.3677 65.3631 11.9654C64.8403 12.563 64.4368 13.2429 64.1525 14.0049C63.8838 14.7518 63.7494 15.5362 63.7494 16.3579V16.8061C63.7494 17.5981 63.8838 18.375 64.1525 19.1369C64.4368 19.884 64.8403 20.5636 65.3631 21.1763C65.9009 21.7742 66.5654 22.2521 67.3576 22.6108ZM67.2118 15.3074C67.2218 15.2599 67.2321 15.2132 67.2436 15.1672C67.2747 15.0405 67.3106 14.919 67.3513 14.803C67.3743 14.737 67.3987 14.6726 67.425 14.6099C67.6489 14.0571 67.9777 13.6388 68.4108 13.355C68.5729 13.2488 68.7484 13.1626 68.9368 13.0962C69.2537 12.9849 69.6091 12.9291 70.0019 12.9291C70.6149 12.9291 71.1224 13.0711 71.5259 13.355C71.9442 13.6238 72.2581 14.0197 72.4673 14.5426C72.4843 14.5849 72.5002 14.6278 72.5158 14.6713C72.5406 14.7406 72.5635 14.8117 72.585 14.8846C72.6165 14.993 72.6442 15.1053 72.6687 15.2213C72.6865 15.3068 72.7016 15.3944 72.7153 15.484H67.1773C67.1877 15.4241 67.1992 15.3653 67.2118 15.3074Z" fill="#72798D"/>
<path d="M77.5999 22.7249V10.4434H80.4463V13.5366C80.4848 13.3527 80.5288 13.1762 80.5781 13.007C80.6203 12.8644 80.6654 12.727 80.715 12.5949C81.029 11.7581 81.4995 11.1307 82.1269 10.7123C82.7544 10.279 83.5236 10.0625 84.4354 10.0625H84.592C85.5186 10.0625 86.2878 10.279 86.9005 10.7123C87.528 11.1307 87.9988 11.7581 88.3124 12.5949L88.3372 12.658L88.3583 12.7158C88.3723 12.675 88.3872 12.6347 88.402 12.5949C88.7307 11.7581 89.209 11.1307 89.8364 10.7123C90.4639 10.279 91.2335 10.0625 92.1449 10.0625H92.3019C93.2277 10.0625 94.0047 10.279 94.6322 10.7123C95.2748 11.1307 95.7605 11.7581 96.0889 12.5949C96.4176 13.4316 96.5823 14.4775 96.5823 15.7325V22.7249H92.9963V15.5307C92.9963 14.8584 92.8172 14.3131 92.4585 13.8948C92.1149 13.4763 91.6218 13.2672 90.9796 13.2672C90.3369 13.2672 89.829 13.4839 89.4555 13.9172C89.082 14.3355 88.8951 14.8957 88.8951 15.598V22.7249H85.2868V15.5307C85.2868 14.8584 85.1077 14.3131 84.749 13.8948C84.4054 13.4763 83.9197 13.2672 83.2927 13.2672C82.6348 13.2672 82.1195 13.4839 81.746 13.9172C81.3725 14.3355 81.1855 14.8957 81.1855 15.598V22.7249H77.5999Z" fill="#72798D"/>
<path fill-rule="evenodd" clip-rule="evenodd" d="M106.161 20.3588V22.7254H109.007V15.1951C109.007 14.0595 108.783 13.1333 108.334 12.416C107.886 11.684 107.229 11.1386 106.362 10.7801C105.511 10.4215 104.457 10.2422 103.202 10.2422C102.93 10.2422 102.646 10.2451 102.35 10.251C102.175 10.2547 101.996 10.2591 101.813 10.2646C101.32 10.2795 100.841 10.3019 100.379 10.3319L100.025 10.3557C99.8429 10.3683 99.6723 10.3808 99.5116 10.3934C99.3909 10.4028 99.2765 10.4122 99.1684 10.4215V13.4471C99.6315 13.4171 100.147 13.3872 100.715 13.3574C100.874 13.3491 101.031 13.3414 101.187 13.3341C101.413 13.3237 101.635 13.3146 101.856 13.3067C102.03 13.3004 102.202 13.2948 102.373 13.2901C102.911 13.2751 103.344 13.2677 103.673 13.2677C104.33 13.2677 104.808 13.4245 105.107 13.7383C105.406 14.0521 105.555 14.5227 105.555 15.1503V15.1951H103.337C102.246 15.1951 101.283 15.3371 100.446 15.6209C99.609 15.8898 98.9589 16.3156 98.4962 16.8983C98.0327 17.4662 97.8013 18.1982 97.8013 19.0946C97.8013 19.9164 97.9879 20.6261 98.3614 21.2239C98.7349 21.8062 99.2502 22.2545 99.9077 22.5681C100.58 22.882 101.357 23.0389 102.238 23.0389C103.09 23.0389 103.807 22.882 104.39 22.5681C104.988 22.2545 105.451 21.8062 105.78 21.2239C105.837 21.1254 105.891 21.0236 105.942 20.9178C106.013 20.7682 106.076 20.6109 106.132 20.4458L106.161 20.3588ZM105.555 18.1758V17.1897H103.314C102.687 17.1897 102.201 17.3465 101.858 17.6603C101.529 17.9591 101.364 18.37 101.364 18.8929C101.364 19.139 101.405 19.3626 101.487 19.5644C101.57 19.7665 101.693 19.946 101.858 20.103C102.201 20.4021 102.687 20.5513 103.314 20.5513C103.434 20.5513 103.549 20.5454 103.661 20.5339C103.752 20.5243 103.84 20.5106 103.926 20.4932C104.09 20.4599 104.245 20.4117 104.39 20.3495C104.719 20.2004 104.988 19.9538 105.197 19.6099C105.406 19.2664 105.526 18.7881 105.555 18.1758Z" fill="#72798D"/>
<path d="M111.153 22.7234V10.442H113.999V14.4957C114.135 13.3385 114.479 12.4054 115.03 11.697C115.777 10.7558 116.852 10.2852 118.257 10.2852H118.728V13.3778H117.831C116.845 13.3778 116.083 13.6467 115.545 14.1846C115.007 14.7075 114.738 15.4695 114.738 16.4705V22.7234H111.153Z" fill="#72798D"/>
<path d="M123.275 16.9861H124.463L128.34 22.7235H132.373L127.457 15.6773L131.499 10.4421H127.735L123.275 16.2817V6.36328H119.689V22.7235H123.275V16.9861Z" fill="#72798D"/>
</svg>
