<svg width="98" height="27" viewBox="0 0 98 27" fill="none" xmlns="http://www.w3.org/2000/svg">
<path fill-rule="evenodd" clip-rule="evenodd" d="M19.7243 4.94487H9.08121V0.429688H24.2393V15.5878H19.7243V4.94487Z" fill="#72798D"/>
<path fill-rule="evenodd" clip-rule="evenodd" d="M11.4106 13.9288C10.7211 13.4681 9.91054 13.2222 9.08129 13.2222V8.70703C10.8036 8.70703 12.4871 9.21773 13.9191 10.1746C15.3511 11.1314 16.4672 12.4914 17.1263 14.0825C17.7854 15.6738 17.9579 17.4246 17.6219 19.1137C17.2859 20.8027 16.4566 22.3544 15.2387 23.5722C14.0209 24.7902 12.4693 25.6195 10.7801 25.9555C9.09095 26.2915 7.34009 26.1189 5.74892 25.4598C4.15778 24.8007 2.79781 23.6848 1.84098 22.2527C0.884145 20.8206 0.373444 19.1372 0.373444 17.4148H4.88863C4.88863 18.2441 5.13453 19.0548 5.59523 19.7441C6.0559 20.4337 6.71071 20.9711 7.47682 21.2883C8.24295 21.6057 9.08594 21.6889 9.89925 21.5269C10.7125 21.3653 11.4596 20.966 12.046 20.3794C12.6323 19.7932 13.0316 19.046 13.1934 18.2327C13.3552 17.4194 13.2722 16.5764 12.9548 15.8104C12.6375 15.0443 12.1001 14.3895 11.4106 13.9288Z" fill="#72798D"/>
<path d="M31.3346 22.5843V3.64062H38.3438C39.8593 3.64062 41.1132 3.89321 42.1055 4.39839C43.0977 4.90353 43.8374 5.59815 44.3245 6.48217C44.8116 7.3662 45.0552 8.3585 45.0552 9.45903C45.0552 10.5054 44.8206 11.4706 44.3516 12.3547C43.8824 13.2207 43.1517 13.9243 42.1594 14.4655C41.1672 14.9887 39.8952 15.2503 38.3438 15.2503H34.7985V22.5843H31.3346ZM34.7985 12.4359H38.1271C39.336 12.4359 40.202 12.1743 40.7253 11.6511C41.2664 11.1098 41.537 10.3791 41.537 9.45903C41.537 8.52087 41.2664 7.79018 40.7253 7.26698C40.202 6.72572 39.336 6.45511 38.1271 6.45511H34.7985V12.4359Z" fill="#72798D"/>
<path d="M51.9549 23.0724C50.6019 23.0724 49.4022 22.7836 48.3557 22.2064C47.3092 21.6292 46.4884 20.8172 45.8931 19.7707C45.2978 18.7244 45 17.5157 45 16.1446C45 14.7553 45.2887 13.5194 45.866 12.4369C46.4613 11.3544 47.2733 10.5155 48.3017 9.92013C49.348 9.30672 50.5747 9 51.982 9C53.2992 9 54.4627 9.28867 55.4731 9.866C56.4834 10.4433 57.2683 11.2371 57.8274 12.2475C58.4049 13.2398 58.6934 14.3493 58.6934 15.5761C58.6934 15.7745 58.6844 15.9821 58.6666 16.1985C58.6666 16.415 58.6575 16.6407 58.6394 16.8752H48.4368C48.5091 17.9215 48.8699 18.7425 49.5194 19.3378C50.1868 19.9331 50.9898 20.2309 51.9281 20.2309C52.6316 20.2309 53.2179 20.0775 53.6869 19.7707C54.1742 19.446 54.535 19.031 54.7695 18.5258H58.2877C58.0351 19.374 57.611 20.1495 57.0157 20.8533C56.4382 21.5388 55.7166 22.0801 54.8506 22.4771C54.0027 22.874 53.0376 23.0724 51.9549 23.0724ZM51.982 11.8145C51.1341 11.8145 50.3854 12.058 49.7359 12.5452C49.0863 13.0142 48.6716 13.7359 48.491 14.7101H55.1755C55.1213 13.8261 54.7967 13.1225 54.2011 12.5993C53.6058 12.0761 52.8661 11.8145 51.982 11.8145Z" fill="#72798D"/>
<path d="M60.4723 22.5876V9.16459H63.5302L63.8009 11.4378C64.2159 10.644 64.8112 10.0125 65.5871 9.54347C66.3807 9.0744 67.31 8.83984 68.3743 8.83984C70.0342 8.83984 71.3243 9.36304 72.2442 10.4095C73.1644 11.4559 73.6244 12.9894 73.6244 15.01V22.5876H70.1605V15.3349C70.1605 14.1801 69.926 13.2961 69.457 12.6827C68.988 12.0693 68.2571 11.7626 67.2648 11.7626C66.2906 11.7626 65.4879 12.1054 64.8564 12.7909C64.243 13.4765 63.9362 14.4327 63.9362 15.6595V22.5876H60.4723Z" fill="#72798D"/>
<path d="M81.5646 22.5847C80.1573 22.5847 79.0297 22.2418 78.1818 21.5563C77.3339 20.8706 76.9098 19.6529 76.9098 17.9028V12.0574H74.6094V9.16176H76.9098L77.3158 5.5625H80.3737V9.16176H84.0001V12.0574H80.3737V17.93C80.3737 18.5795 80.509 19.0304 80.7797 19.283C81.0684 19.5175 81.5555 19.6348 82.241 19.6348H83.919V22.5847H81.5646Z" fill="#72798D"/>
<path d="M90.2489 22.9122C89.0942 22.9122 88.1468 22.7317 87.4072 22.3709C86.6675 21.992 86.1174 21.4959 85.7563 20.8825C85.3955 20.2691 85.2152 19.5927 85.2152 18.853C85.2152 17.6081 85.7023 16.5978 86.6765 15.822C87.6507 15.0461 89.1123 14.6582 91.0606 14.6582H94.4706V14.3335C94.4706 13.4134 94.2089 12.7368 93.6857 12.3038C93.1624 11.8708 92.5129 11.6543 91.7373 11.6543C91.0335 11.6543 90.4201 11.8257 89.8969 12.1685C89.3739 12.4933 89.049 12.9804 88.9227 13.6299H85.5399C85.63 12.6556 85.9549 11.8077 86.5141 11.086C87.0916 10.3644 87.8312 9.81408 88.7334 9.43523C89.6352 9.0383 90.6456 8.83984 91.7642 8.83984C93.6766 8.83984 95.1831 9.31795 96.2836 10.2742C97.3841 11.2304 97.9345 12.5835 97.9345 14.3335V22.5876H94.9848L94.6599 20.4225C94.2629 21.1441 93.7038 21.7394 92.9822 22.2087C92.2784 22.6777 91.3675 22.9122 90.2489 22.9122ZM91.0335 20.2061C92.0258 20.2061 92.7926 19.8812 93.3339 19.2319C93.8931 18.5823 94.2451 17.7794 94.3892 16.8233H91.4395C90.5193 16.8233 89.861 16.9945 89.464 17.3375C89.0671 17.6621 88.8687 18.0681 88.8687 18.5552C88.8687 19.0785 89.0671 19.4845 89.464 19.773C89.861 20.0617 90.384 20.2061 91.0335 20.2061Z" fill="#72798D"/>
</svg>
