<svg width="145" height="24" viewBox="0 0 145 24" fill="none" xmlns="http://www.w3.org/2000/svg">
<path fill-rule="evenodd" clip-rule="evenodd" d="M15.4305 1.01172C13.1431 1.01172 11.2888 2.86603 11.2888 5.15346C11.2888 7.44087 13.1431 9.2952 15.4305 9.2952C17.7181 9.2952 19.5723 7.44087 19.5723 5.15346C19.5723 2.86603 17.7181 1.01172 15.4305 1.01172ZM7.33251 9.06919C11.6438 9.06919 15.1388 12.5642 15.1388 16.8756V23.2736H11.256V16.8756C11.256 16.4164 11.1771 15.9758 11.0322 15.5663L5.32876 21.2697L2.58315 18.524L8.0833 13.0238C7.84029 12.9767 7.58927 12.9521 7.33251 12.9521H0.934448V9.06919H7.33251ZM23.6252 9.06919C19.3139 9.06919 15.8188 12.5642 15.8188 16.8756V23.2736H19.7017V16.8756C19.7017 16.5158 19.7501 16.1676 19.8407 15.8365L25.8069 21.8027L28.5526 19.0573L22.5864 13.0911C22.9173 13.0005 23.2657 12.9521 23.6252 12.9521H30.0232V9.06919H23.6252Z" fill="#72798D"/>
<path d="M36.2358 23.4981V1.17969H42.5567L49.3336 20.3051H49.8223V1.17969H53.4388V23.4981H47.2485L40.3085 4.3401H39.8524V23.4981H36.2358Z" fill="#72798D"/>
<path d="M67.9274 20.5646L68.8396 20.4667L68.9048 23.1058C66.4286 23.6054 64.2347 23.8552 62.3233 23.8552C59.9123 23.8552 58.1746 23.1928 57.1104 21.8677C56.0677 20.5428 55.5464 18.4248 55.5464 15.5142C55.5464 9.73655 57.903 6.84766 62.6166 6.84766C67.178 6.84766 69.4588 9.33472 69.4588 14.3087L69.2307 16.8502H59.1303C59.152 18.1968 59.4453 19.1851 60.0102 19.8152C60.5747 20.445 61.6283 20.76 63.1706 20.76C64.7126 20.76 66.2984 20.6948 67.9274 20.5646ZM65.9724 14.1133C65.9724 12.506 65.7118 11.3873 65.1904 10.7574C64.6911 10.1058 63.833 9.78001 62.6166 9.78001C61.4002 9.78001 60.5097 10.1167 59.9449 10.79C59.4018 11.4634 59.1194 12.5712 59.0979 14.1133H65.9724Z" fill="#72798D"/>
<path d="M80.0091 10.2349H75.5127V17.4029C75.5127 18.7277 75.6106 19.6076 75.806 20.0419C76.0015 20.4763 76.5011 20.6935 77.3048 20.6935L79.9765 20.5959L80.1393 23.4304C78.684 23.7128 77.5764 23.8539 76.8161 23.8539C74.9699 23.8539 73.6992 23.4304 73.0041 22.5832C72.3306 21.7362 71.9941 20.1395 71.9941 17.7938V10.2349H69.9087V7.2048H71.9941V2.48047H75.5127V7.2048H80.0091V10.2349Z" fill="#72798D"/>
<path d="M80.0221 7.20703H83.5084L86.0822 20.4677H86.7338L89.8292 7.53283H93.4784L96.5735 20.4677H97.2251L99.7666 7.20703H103.285L99.8315 23.4979H94.1951L91.6537 12.3223L89.1124 23.4979H83.4758L80.0221 7.20703Z" fill="#72798D"/>
<path d="M105.552 8.96546C106.682 7.55359 108.55 6.84766 111.156 6.84766C113.763 6.84766 115.62 7.55359 116.728 8.96546C117.857 10.3773 118.422 12.4951 118.422 15.3188C118.422 18.1427 117.879 20.2713 116.793 21.7048C115.707 23.1384 113.828 23.8552 111.156 23.8552C108.485 23.8552 106.606 23.1384 105.52 21.7048C104.433 20.2713 103.891 18.1427 103.891 15.3188C103.891 12.4951 104.444 10.3773 105.552 8.96546ZM108.224 19.5545C108.724 20.4232 109.701 20.8576 111.156 20.8576C112.612 20.8576 113.589 20.4232 114.089 19.5545C114.588 18.6855 114.838 17.2628 114.838 15.2862C114.838 13.3098 114.566 11.9087 114.023 11.0833C113.502 10.2579 112.546 9.84517 111.156 9.84517C109.766 9.84517 108.799 10.2579 108.257 11.0833C107.735 11.9087 107.475 13.3098 107.475 15.2862C107.475 17.2628 107.724 18.6855 108.224 19.5545Z" fill="#72798D"/>
<path d="M120.32 23.4969V7.20607H123.839V9.16095C125.685 7.96629 127.532 7.1952 129.378 6.84766V10.399C127.51 10.7683 125.914 11.2462 124.589 11.8326L123.872 12.1259V23.4969H120.32Z" fill="#72798D"/>
<path d="M134.015 23.4975H130.464V0.429688H134.015V13.7556L136.036 13.5601L139.88 7.20664H143.855L139.163 14.8306L144.116 23.4975H140.108L136.133 16.6227L134.015 16.8508V23.4975Z" fill="#72798D"/>
</svg>
