<svg width="99" height="27" viewBox="0 0 99 27" fill="none" xmlns="http://www.w3.org/2000/svg">
<path d="M25.1379 9.9758C25.8758 10.7138 25.8758 11.9104 25.1379 12.6484L11.7295 26.0566C10.9915 26.7949 9.795 26.7949 9.05697 26.0566L0.619069 17.6188C-0.118954 16.8808 -0.118954 15.6843 0.619069 14.9463L14.0275 1.53789C14.7655 0.799869 15.962 0.799869 16.7 1.53789L25.1379 9.9758Z" fill="#72798D"/>
<path d="M28.2873 12.6484C29.0253 11.9104 29.0253 10.7138 28.2873 9.9758L22.0829 3.77139L24.3166 1.53789C25.0545 0.799869 26.2511 0.799869 26.9891 1.53789L35.4269 9.9758C36.1649 10.7138 36.1649 11.9104 35.4269 12.6484L22.0186 26.0566C21.2807 26.7949 20.0841 26.7949 19.3458 26.0566L17.1124 23.8232L28.2873 12.6484Z" fill="#72798D"/>
<path d="M50.2233 14.743C50.9355 14.8758 51.521 15.232 51.9799 15.8114C52.4385 16.3909 52.6681 17.055 52.6681 17.8033C52.6681 18.4796 52.4989 19.0771 52.161 19.5961C51.835 20.1032 51.3582 20.5016 50.7304 20.7914C50.1027 21.0812 49.36 21.2261 48.503 21.2261H43.0522V8.58594H48.2674C49.1247 8.58594 49.8611 8.72477 50.4769 9.00245C51.1046 9.28012 51.5755 9.66645 51.8892 10.1614C52.2152 10.6564 52.3783 11.2178 52.3783 11.8456C52.3783 12.582 52.1789 13.1977 51.7805 13.6927C51.3944 14.1877 50.8753 14.5378 50.2233 14.743ZM45.5874 13.8013H47.9052C48.509 13.8013 48.9739 13.6685 49.2999 13.4029C49.6255 13.1253 49.7887 12.7329 49.7887 12.2258C49.7887 11.7188 49.6255 11.3264 49.2999 11.0488C48.9739 10.7711 48.509 10.6323 47.9052 10.6323H45.5874V13.8013ZM48.1408 19.1615C48.7566 19.1615 49.2334 19.0166 49.5714 18.7271C49.9216 18.4374 50.0964 18.0267 50.0964 17.4956C50.0964 16.9523 49.9153 16.5298 49.5531 16.2279C49.1912 15.9141 48.7021 15.7571 48.0863 15.7571H45.5874V19.1615H48.1408Z" fill="#72798D"/>
<path d="M58.4191 21.3856C57.4534 21.3856 56.5841 21.1746 55.8115 20.7519C55.0389 20.3172 54.4292 19.7075 53.9825 18.9229C53.5479 18.1383 53.3306 17.2328 53.3306 16.2065C53.3306 15.1804 53.5539 14.2749 54.0005 13.4902C54.4594 12.7054 55.0811 12.1018 55.8657 11.6793C56.6506 11.2447 57.5259 11.0273 58.4916 11.0273C59.4572 11.0273 60.3325 11.2447 61.1174 11.6793C61.902 12.1018 62.5177 12.7054 62.9644 13.4902C63.4233 14.2749 63.6526 15.1804 63.6526 16.2065C63.6526 17.2328 63.4173 18.1383 62.9464 18.9229C62.4875 19.7075 61.8598 20.3172 61.0629 20.7519C60.2783 21.1746 59.3971 21.3856 58.4191 21.3856ZM58.4191 19.1764C58.878 19.1764 59.3064 19.0678 59.7048 18.8504C60.1152 18.6211 60.4412 18.2829 60.6828 17.8363C60.9243 17.3896 61.045 16.8463 61.045 16.2065C61.045 15.2528 60.7914 14.5224 60.2843 14.0153C59.7895 13.4962 59.1798 13.2367 58.4553 13.2367C57.7309 13.2367 57.1215 13.4962 56.6263 14.0153C56.1435 14.5224 55.9019 15.2528 55.9019 16.2065C55.9019 17.1603 56.1375 17.8967 56.6084 18.4158C57.0912 18.9229 57.6947 19.1764 58.4191 19.1764Z" fill="#72798D"/>
<path d="M67.3232 12.7491C67.6492 12.2179 68.0719 11.8014 68.591 11.4996C69.1223 11.1978 69.7258 11.0469 70.402 11.0469V13.7089H69.7317C68.9349 13.7089 68.3314 13.896 67.921 14.2703C67.5226 14.6445 67.3232 15.2965 67.3232 16.226V21.2242H64.7881V11.1918H67.3232V12.7491Z" fill="#72798D"/>
<path d="M70.7334 16.1725C70.7334 15.1584 70.9324 14.259 71.3309 13.4742C71.7413 12.6895 72.2966 12.0859 72.997 11.6633C73.6972 11.2408 74.4758 11.0295 75.3328 11.0295C75.9848 11.0295 76.6065 11.1744 77.1983 11.4641C77.7898 11.7418 78.2607 12.116 78.6106 12.5869V7.82422H81.1823V21.2249H78.6106V19.7399C78.2969 20.235 77.8563 20.6334 77.2887 20.9351C76.7212 21.2369 76.0632 21.3877 75.3149 21.3877C74.4698 21.3877 73.6972 21.1704 72.997 20.7361C72.2966 20.3014 71.7413 19.6917 71.3309 18.9068C70.9324 18.1102 70.7334 17.1987 70.7334 16.1725ZM78.6289 16.2087C78.6289 15.593 78.508 15.0678 78.2667 14.6332C78.0251 14.1865 77.6991 13.8485 77.2887 13.6191C76.8783 13.3777 76.4377 13.2569 75.9668 13.2569C75.496 13.2569 75.0613 13.3716 74.6629 13.601C74.2644 13.8304 73.9385 14.1684 73.6849 14.6151C73.4437 15.0497 73.3227 15.5688 73.3227 16.1725C73.3227 16.776 73.4437 17.3074 73.6849 17.766C73.9385 18.2126 74.2644 18.5569 74.6629 18.7984C75.0733 19.0397 75.5079 19.1603 75.9668 19.1603C76.4377 19.1603 76.8783 19.0457 77.2887 18.8164C77.6991 18.5748 78.0251 18.2368 78.2667 17.8022C78.508 17.3556 78.6289 16.8246 78.6289 16.2087Z" fill="#72798D"/>
<path d="M92.2599 15.9892C92.2599 16.3514 92.2356 16.6775 92.1875 16.967H84.8532C84.9137 17.6914 85.1669 18.2589 85.6139 18.6693C86.0605 19.0797 86.6098 19.2851 87.2618 19.2851C88.2035 19.2851 88.8734 18.8807 89.2718 18.0718H92.0064C91.7166 19.0375 91.1613 19.8344 90.3402 20.4621C89.5194 21.0779 88.5112 21.3856 87.3159 21.3856C86.3502 21.3856 85.4809 21.1746 84.7083 20.7519C83.9477 20.3172 83.3502 19.7075 82.9156 18.9229C82.4929 18.1383 82.2819 17.2328 82.2819 16.2065C82.2819 15.1683 82.4929 14.2568 82.9156 13.4721C83.3379 12.6873 83.9297 12.0837 84.6901 11.6612C85.4507 11.2386 86.326 11.0273 87.3159 11.0273C88.2696 11.0273 89.121 11.2326 89.8693 11.6431C90.63 12.0535 91.2155 12.639 91.6259 13.3996C92.0486 14.1481 92.2599 15.0113 92.2599 15.9892ZM89.6341 15.2649C89.6218 14.6129 89.3865 14.0938 88.9276 13.7075C88.469 13.3091 87.9074 13.1099 87.2435 13.1099C86.6158 13.1099 86.0847 13.303 85.6501 13.6894C85.2274 14.0636 84.9679 14.5888 84.8712 15.2649H89.6341Z" fill="#72798D"/>
<path d="M95.9212 12.7491C96.2472 12.2179 96.6699 11.8014 97.189 11.4996C97.7203 11.1978 98.3238 11.0469 99 11.0469V13.7089H98.3298C97.5332 13.7089 96.9294 13.896 96.519 14.2703C96.1206 14.6445 95.9212 15.2965 95.9212 16.226V21.2242H93.3861V11.1918H95.9212V12.7491Z" fill="#72798D"/>
</svg>
