<svg width="110" height="31" viewBox="0 0 110 31" fill="none" xmlns="http://www.w3.org/2000/svg">
<path d="M13.7405 30.5463H3.94043L13.7405 15.7266H23.5407L13.7405 30.5463Z" fill="#72798D"/>
<path d="M10.1549 0.429688H20.194L10.1549 15.7274H0.115784L10.1549 0.429688Z" fill="#72798D"/>
<path d="M43.5334 13.3207C43.5334 14.2294 43.3143 15.0815 42.8761 15.8768C42.4541 16.6719 41.7807 17.3129 40.8557 17.7999C39.9468 18.2867 38.7946 18.5302 37.399 18.5302H34.5506V25.0541H31.1426V8.0625H37.399C38.7135 8.0625 39.8332 8.28969 40.7582 8.74412C41.6835 9.19852 42.373 9.82333 42.8276 10.6186C43.2982 11.4138 43.5334 12.3145 43.5334 13.3207ZM37.2527 15.7793C38.194 15.7793 38.8919 15.5685 39.3465 15.1463C39.8008 14.7083 40.028 14.0997 40.028 13.3207C40.028 11.6653 39.103 10.8377 37.2527 10.8377H34.5506V15.7793H37.2527Z" fill="#72798D"/>
<path d="M48.3875 13.6633C48.8257 12.9492 49.3936 12.3893 50.0914 11.9836C50.8056 11.5779 51.617 11.375 52.5259 11.375V14.9534H51.6251C50.5541 14.9534 49.7427 15.2049 49.1908 15.7083C48.6553 16.2113 48.3875 17.0876 48.3875 18.3372V25.0559H44.9795V11.5697H48.3875V13.6633Z" fill="#72798D"/>
<path d="M59.8361 25.276C58.5377 25.276 57.3692 24.992 56.3306 24.4241C55.292 23.8399 54.4723 23.0201 53.872 21.9652C53.2877 20.9103 52.9955 19.6933 52.9955 18.3138C52.9955 16.9345 53.2958 15.7172 53.8964 14.6623C54.513 13.6074 55.3488 12.7959 56.4037 12.2279C57.4586 11.6437 58.6352 11.3516 59.9336 11.3516C61.2317 11.3516 62.4083 11.6437 63.4632 12.2279C64.5181 12.7959 65.3458 13.6074 65.9464 14.6623C66.5631 15.7172 66.8714 16.9345 66.8714 18.3138C66.8714 19.6933 66.5548 20.9103 65.922 21.9652C65.3051 23.0201 64.4613 23.8399 63.3903 24.4241C62.3354 24.992 61.1506 25.276 59.8361 25.276ZM59.8361 22.306C60.4527 22.306 61.0289 22.16 61.5644 21.868C62.1163 21.5597 62.5545 21.1051 62.8789 20.5048C63.2036 19.9042 63.3659 19.1739 63.3659 18.3138C63.3659 17.0317 63.0252 16.0499 62.3434 15.3682C61.678 14.6703 60.8586 14.3216 59.8848 14.3216C58.9111 14.3216 58.0914 14.6703 57.4262 15.3682C56.7769 16.0499 56.4525 17.0317 56.4525 18.3138C56.4525 19.5958 56.7688 20.5859 57.4019 21.2838C58.0509 21.9652 58.8623 22.306 59.8361 22.306Z" fill="#72798D"/>
<path d="M71.8055 22.3518H75.4655V25.0539H68.3975V5.96875H71.8055V22.3518Z" fill="#72798D"/>
<path d="M78.1092 9.96107C77.5089 9.96107 77.0056 9.77444 76.6 9.40118C76.2105 9.01168 76.0157 8.53293 76.0157 7.96491C76.0157 7.3969 76.2105 6.92626 76.6 6.553C77.0056 6.1635 77.5089 5.96875 78.1092 5.96875C78.7098 5.96875 79.2046 6.1635 79.5941 6.553C79.9999 6.92626 80.2027 7.3969 80.2027 7.96491C80.2027 8.53293 79.9999 9.01168 79.5941 9.40118C79.2046 9.77444 78.7098 9.96107 78.1092 9.96107ZM79.7888 11.5677V25.0539H76.3809V11.5677H79.7888Z" fill="#72798D"/>
<path d="M89.6559 11.375C91.2624 11.375 92.5608 11.8862 93.5509 12.9086C94.5407 13.9148 95.0357 15.3268 95.0357 17.1444V25.0559H91.6275V17.607C91.6275 16.5357 91.3599 15.7163 90.8244 15.1481C90.2886 14.5639 89.5584 14.2719 88.6334 14.2719C87.6921 14.2719 86.9455 14.5639 86.3937 15.1481C85.8582 15.7163 85.5906 16.5357 85.5906 17.607V25.0559H82.1823V11.5697H85.5906V13.2494C86.0449 12.6652 86.6211 12.2108 87.3189 11.8862C88.0328 11.5454 88.8118 11.375 89.6559 11.375Z" fill="#72798D"/>
<path d="M109.84 18.0218C109.84 18.5085 109.807 18.9468 109.742 19.3363H99.8834C99.9643 20.31 100.305 21.0727 100.906 21.6245C101.506 22.1763 102.244 22.4522 103.121 22.4522C104.387 22.4522 105.288 21.9084 105.823 20.8211H109.499C109.109 22.1195 108.363 23.1905 107.259 24.0346C106.156 24.8621 104.801 25.276 103.194 25.276C101.896 25.276 100.727 24.992 99.6886 24.4241C98.6661 23.8399 97.8628 23.0201 97.2785 21.9652C96.7106 20.9103 96.4264 19.6933 96.4264 18.3138C96.4264 16.9181 96.7106 15.6928 97.2785 14.6379C97.8464 13.5831 98.6418 12.7716 99.6643 12.2036C100.686 11.6356 101.863 11.3516 103.194 11.3516C104.476 11.3516 105.62 11.6275 106.626 12.1792C107.649 12.731 108.436 13.5181 108.988 14.5407C109.556 15.5468 109.84 16.707 109.84 18.0218ZM106.31 17.048C106.294 16.1715 105.977 15.4737 105.36 14.9543C104.744 14.4188 103.989 14.1512 103.097 14.1512C102.253 14.1512 101.539 14.4108 100.954 14.9302C100.386 15.4333 100.037 16.1391 99.9075 17.048H106.31Z" fill="#72798D"/>
</svg>
