<svg width="159" height="24" viewBox="0 0 159 24" fill="none" xmlns="http://www.w3.org/2000/svg">
<path d="M30.2745 21.2267V1.04688H33.9644L43.4489 15.2594V1.04688H47.1388V21.2267H43.4489L33.9644 7.04318V21.2267H30.2745Z" fill="#72798D"/>
<path d="M56.4708 21.5729C55.0293 21.5729 53.7513 21.2651 52.6367 20.6502C51.522 20.0354 50.6476 19.1704 50.0132 18.0558C49.3789 16.9409 49.0619 15.6534 49.0619 14.1927C49.0619 12.7129 49.3693 11.3964 49.9845 10.2432C50.6186 9.09011 51.4835 8.19642 52.579 7.56221C53.6936 6.90877 55.0006 6.58203 56.4995 6.58203C57.9027 6.58203 59.1421 6.88954 60.2185 7.50455C61.2948 8.11953 62.1307 8.96518 62.7265 10.0414C63.3417 11.0985 63.6491 12.2804 63.6491 13.5873C63.6491 13.7987 63.6395 14.0197 63.6201 14.2504C63.6201 14.481 63.6105 14.7212 63.5914 14.9712H52.7231C52.8 16.0858 53.1843 16.9603 53.8763 17.5943C54.5872 18.2287 55.4426 18.5457 56.4421 18.5457C57.1916 18.5457 57.816 18.3824 58.3158 18.0558C58.8347 17.7098 59.219 17.2677 59.469 16.7297H63.2167C62.9475 17.6329 62.4959 18.4592 61.8616 19.2087C61.2467 19.9391 60.4781 20.5157 59.5554 20.9386C58.6522 21.3614 57.624 21.5729 56.4708 21.5729ZM56.4995 9.58017C55.5963 9.58017 54.7987 9.83964 54.1069 10.3585C53.4149 10.8582 52.9729 11.627 52.7808 12.6648H59.9014C59.8437 11.7231 59.4977 10.9735 58.8637 10.4162C58.2293 9.85884 57.4413 9.58017 56.4995 9.58017Z" fill="#72798D"/>
<path d="M62.9709 21.2286L68.1598 14.0791L62.9709 6.92969H66.9205L70.5527 12.0035L74.1562 6.92969H78.1345L72.9166 14.0791L78.1345 21.2286H74.1562L70.5527 16.1548L66.9205 21.2286H62.9709Z" fill="#72798D"/>
<path d="M85.4153 21.2268C83.916 21.2268 82.7149 20.8616 81.8115 20.1313C80.9083 19.401 80.4566 18.1036 80.4566 16.2395V10.0125H78.0063V6.92791H80.4566L80.8891 3.09375H84.1466V6.92791H88.0097V10.0125H84.1466V16.2682C84.1466 16.9602 84.2908 17.4406 84.5791 17.7097C84.8865 17.9594 85.4054 18.0845 86.1357 18.0845H87.9233V21.2268H85.4153Z" fill="#72798D"/>
<path d="M89.7363 21.2269V6.92797H92.9941L93.3111 8.85946C93.7723 8.16759 94.3779 7.61984 95.1274 7.21624C95.896 6.79344 96.7801 6.58203 97.7796 6.58203C99.9897 6.58203 101.556 7.43729 102.479 9.14777C102.997 8.35977 103.689 7.73516 104.554 7.2739C105.438 6.81267 106.399 6.58203 107.437 6.58203C109.301 6.58203 110.733 7.13938 111.732 8.25408C112.732 9.36878 113.231 11.0024 113.231 13.1549V21.2269H109.541V13.5008C109.541 12.2708 109.301 11.3291 108.821 10.6757C108.36 10.0222 107.639 9.69549 106.659 9.69549C105.659 9.69549 104.852 10.0607 104.237 10.791C103.641 11.5213 103.343 12.5399 103.343 13.8468V21.2269H99.6533V13.5008C99.6533 12.2708 99.4131 11.3291 98.9328 10.6757C98.4522 10.0222 97.7123 9.69549 96.7128 9.69549C95.7327 9.69549 94.9351 10.0607 94.3202 10.791C93.7244 11.5213 93.4266 12.5399 93.4266 13.8468V21.2269H89.7363Z" fill="#72798D"/>
<path d="M122.155 21.5729C120.771 21.5729 119.522 21.2556 118.407 20.6215C117.311 19.9872 116.437 19.1127 115.783 17.9981C115.149 16.864 114.832 15.5574 114.832 14.0774C114.832 12.5975 115.159 11.3003 115.812 10.1856C116.466 9.05165 117.34 8.16759 118.436 7.53338C119.55 6.89914 120.8 6.58203 122.183 6.58203C123.548 6.58203 124.778 6.89914 125.873 7.53338C126.988 8.16759 127.862 9.05165 128.497 10.1856C129.15 11.3003 129.477 12.5975 129.477 14.0774C129.477 15.5574 129.15 16.864 128.497 17.9981C127.862 19.1127 126.988 19.9872 125.873 20.6215C124.759 21.2556 123.519 21.5729 122.155 21.5729ZM122.155 18.3728C123.116 18.3728 123.951 18.0172 124.663 17.306C125.374 16.576 125.729 15.4996 125.729 14.0774C125.729 12.6552 125.374 11.5886 124.663 10.8774C123.951 10.1471 123.125 9.78198 122.183 9.78198C121.203 9.78198 120.358 10.1471 119.646 10.8774C118.955 11.5886 118.609 12.6552 118.609 14.0774C118.609 15.4996 118.955 16.576 119.646 17.306C120.358 18.0172 121.194 18.3728 122.155 18.3728Z" fill="#72798D"/>
<path d="M134.494 21.2286L129.247 6.92969H133.11L136.742 17.7402L140.375 6.92969H144.238L138.962 21.2286H134.494Z" fill="#72798D"/>
<path d="M151.368 21.5729C149.926 21.5729 148.648 21.2651 147.534 20.6502C146.419 20.0354 145.544 19.1704 144.91 18.0558C144.276 16.9409 143.959 15.6534 143.959 14.1927C143.959 12.7129 144.266 11.3964 144.881 10.2432C145.516 9.09011 146.38 8.19642 147.476 7.56221C148.59 6.90877 149.897 6.58203 151.397 6.58203C152.8 6.58203 154.039 6.88954 155.115 7.50455C156.192 8.11953 157.028 8.96518 157.623 10.0414C158.239 11.0985 158.546 12.2804 158.546 13.5873C158.546 13.7987 158.536 14.0197 158.517 14.2504C158.517 14.481 158.507 14.7212 158.488 14.9712H147.62C147.697 16.0858 148.081 16.9603 148.773 17.5943C149.484 18.2287 150.339 18.5457 151.339 18.5457C152.088 18.5457 152.713 18.3824 153.213 18.0558C153.732 17.7098 154.116 17.2677 154.366 16.7297H158.114C157.844 17.6329 157.393 18.4592 156.759 19.2087C156.144 19.9391 155.375 20.5157 154.452 20.9386C153.549 21.3614 152.521 21.5729 151.368 21.5729ZM151.397 9.58017C150.493 9.58017 149.696 9.83964 149.004 10.3585C148.312 10.8582 147.87 11.627 147.678 12.6648H154.798C154.741 11.7231 154.395 10.9735 153.761 10.4162C153.126 9.85884 152.338 9.58017 151.397 9.58017Z" fill="#72798D"/>
<path d="M12.079 0.65601V9.77856C12.079 10.8198 11.2349 11.6638 10.1937 11.6638H1.07112V7.89327H5.63709L0.839722 3.0959L3.50593 0.429688L8.30837 5.23213V0.65601H12.079Z" fill="#72798D"/>
<path d="M23.2157 11.793H14.0931C13.0519 11.793 12.2078 12.6371 12.2078 13.6783V22.8009H15.9785V18.2345L20.7761 23.0321L23.4422 20.366L18.6399 15.5634H23.2157V11.793Z" fill="#72798D"/>
</svg>
