<svg width="20" height="15" viewBox="0 0 20 15" fill="none" xmlns="http://www.w3.org/2000/svg">
<path d="M17.5 0H2.5C1.83718 0.000676801 1.2017 0.252314 0.733016 0.699697C0.264329 1.14708 0.000709029 1.75367 0 2.38636V12.6136C0.000709029 13.2463 0.264329 13.8529 0.733016 14.3003C1.2017 14.7477 1.83718 14.9993 2.5 15H17.5C18.1628 14.9993 18.7983 14.7477 19.267 14.3003C19.7357 13.8529 19.9993 13.2463 20 12.6136V2.38636C19.9993 1.75367 19.7357 1.14708 19.267 0.699697C18.7983 0.252314 18.1628 0.000676801 17.5 0ZM16.867 3.9473L10.4384 8.72003C10.313 8.81305 10.1588 8.86355 10 8.86355C9.84122 8.86355 9.68696 8.81305 9.56161 8.72003L3.13304 3.9473C3.05751 3.89286 2.99407 3.82462 2.9464 3.74657C2.89873 3.66852 2.86779 3.5822 2.85538 3.49264C2.84296 3.40308 2.84932 3.31205 2.87408 3.22485C2.89884 3.13765 2.9415 3.05602 2.9996 2.98469C3.05769 2.91337 3.13006 2.85378 3.21249 2.80938C3.29492 2.76499 3.38577 2.73667 3.47977 2.72608C3.57376 2.71549 3.66903 2.72284 3.76002 2.7477C3.85102 2.77256 3.93593 2.81443 4.00982 2.87088L10 7.31804L15.9902 2.87088C16.14 2.76291 16.3283 2.71555 16.5143 2.73905C16.7004 2.76256 16.8693 2.85503 16.9845 2.99647C17.0997 3.13792 17.152 3.31697 17.13 3.4949C17.108 3.67283 17.0135 3.83535 16.867 3.9473Z" fill="white"/>
</svg>
