<svg width="20" height="19" viewBox="0 0 20 19" fill="none" xmlns="http://www.w3.org/2000/svg">
<path d="M19.0286 12.7586L14.3315 10.8558C14.0892 10.7526 13.8231 10.7098 13.5585 10.7314C13.2939 10.753 13.0395 10.8384 12.8193 10.9794L10.3055 12.5683C8.77344 11.8614 7.53301 10.6897 6.78019 9.23832L8.44269 6.82169C8.59016 6.61226 8.68022 6.37115 8.7047 6.12026C8.72919 5.86937 8.68732 5.61665 8.5829 5.38503L6.56988 0.922821C6.42941 0.621516 6.19156 0.370551 5.89083 0.206321C5.59011 0.04209 5.24213 -0.0268677 4.89736 0.00944749C3.54492 0.17776 2.30283 0.80691 1.40203 1.77992C0.501227 2.75294 0.00300688 4.00361 0 5.2994C0 12.8538 6.46973 19 14.4217 19C15.7857 18.9971 17.1022 18.5238 18.1264 17.6681C19.1506 16.8123 19.8129 15.6323 19.9901 14.3475C20.0283 14.02 19.9557 13.6894 19.7828 13.4037C19.6099 13.118 19.3458 12.8921 19.0286 12.7586Z" fill="white"/>
</svg>
