<svg width="27" height="22" viewBox="0 0 27 22" fill="none" xmlns="http://www.w3.org/2000/svg">
<path d="M7.08978 18.9629V21.493" stroke="#FFA68B" stroke-linecap="round" stroke-linejoin="round"/>
<path d="M19.7405 18.9629V21.493" stroke="#FFA68B" stroke-linecap="round" stroke-linejoin="round"/>
<path d="M5.82471 8.84236V3.3604C5.82471 2.80121 6.02463 2.26491 6.3805 1.8695C6.73637 1.47409 7.21903 1.25195 7.72231 1.25195C8.22559 1.25195 8.70825 1.47409 9.06412 1.8695C9.41999 2.26491 9.61991 2.80121 9.61991 3.3604" stroke="#FFA68B" stroke-linecap="round" stroke-linejoin="round"/>
<path d="M21.0055 7.57812H14.6802V13.9035H21.0055V7.57812Z" stroke="#FFA68B" stroke-linecap="round" stroke-linejoin="round"/>
<path d="M21.5477 8.8418H25.1622C25.4018 8.8418 25.6317 8.93873 25.8011 9.11127C25.9706 9.28382 26.0658 9.51783 26.0658 9.76185V13.442C26.0658 14.9061 25.4946 16.3102 24.4778 17.3455C23.4611 18.3807 22.082 18.9623 20.6441 18.9623H6.18616C4.74823 18.9623 3.36919 18.3807 2.35242 17.3455C1.33565 16.3102 0.764435 14.9061 0.764435 13.442V9.76185C0.764435 9.51783 0.859637 9.28382 1.0291 9.11127C1.19856 8.93873 1.4284 8.8418 1.66806 8.8418H14.3187" stroke="#FFA68B" stroke-linecap="round" stroke-linejoin="round"/>
</svg>
