<svg width="99" height="111" viewBox="0 0 99 111" fill="none" xmlns="http://www.w3.org/2000/svg">
<path d="M61.0294 102.321C61.1913 102.983 61.8595 103.39 62.517 103.211C68.8782 101.486 74.8335 98.5022 80.0285 94.4324C85.5474 90.1087 90.0816 84.6586 93.3289 78.4452C96.5762 72.2317 98.4621 65.3976 98.861 58.3981C99.2364 51.8094 98.2861 45.2166 96.071 39.0089C95.842 38.3672 95.1266 38.0509 94.4909 38.2958C93.8551 38.5407 93.54 39.2541 93.7681 39.8961C95.8577 45.7764 96.7534 52.019 96.3979 58.2578C96.019 64.9073 94.2274 71.3997 91.1424 77.3025C88.0575 83.2053 83.75 88.3829 78.5071 92.4903C73.588 96.344 67.9514 99.1726 61.9306 100.814C61.2733 100.993 60.8676 101.66 61.0294 102.321Z" fill="black"/>
<path d="M50.876 7.50046C50.894 6.81944 50.3566 6.2511 49.6753 6.25006C43.0842 6.23995 36.5535 7.55057 30.4702 10.1091C24.0077 12.8272 18.1987 16.8913 13.4301 22.0306C8.66148 27.17 5.04286 33.2665 2.81532 39.9141C0.718499 46.1715 -0.100414 52.7819 0.402218 59.3538C0.454171 60.0331 1.06109 60.5266 1.73886 60.4577C2.41662 60.3888 2.90849 59.7835 2.85743 59.1042C2.38971 52.8812 3.1691 46.623 5.15454 40.6979C7.27071 34.3827 10.7084 28.591 15.2386 23.7087C19.7687 18.8263 25.2873 14.9654 31.4267 12.3832C37.1868 9.96058 43.3693 8.7157 49.6099 8.71706C50.2911 8.71721 50.8579 8.18148 50.876 7.50046Z" fill="black"/>
<path d="M60.6562 13.9995L58.9279 0.933594L61.1904 1.54386L62.5573 13.1702L61.8817 12.9824L68.905 3.60938L71.1204 4.20399L63.1073 14.6568L60.6562 13.9995Z" fill="black"/>
<path d="M72.9901 8.4604L74.8755 9.39927L70.6961 17.7709L68.8107 16.832L72.9901 8.4604ZM76.8395 5.92545L75.9439 7.72495L73.6971 6.61396L74.5927 4.81445L76.8395 5.92545Z" fill="black"/>
<path d="M80.6576 20.6813L82.2759 21.8862C81.8203 22.34 81.2703 22.6373 80.6576 22.8094C80.0448 22.9659 79.3849 22.9659 78.6621 22.7781C77.9551 22.606 77.2166 22.2304 76.4625 21.6671C75.5983 21.0255 74.9541 20.3057 74.5142 19.4921C74.0742 18.6784 73.8857 17.8334 73.9328 16.9727C73.98 16.1121 74.3099 15.2671 74.907 14.4691C75.504 13.6711 76.2111 13.1234 77.0281 12.8104C77.8451 12.4975 78.6936 12.4192 79.6049 12.5914C80.5005 12.7635 81.396 13.1703 82.2602 13.8119C83.1558 14.4847 83.7843 15.1889 84.1456 15.9556C84.507 16.7224 84.6013 17.5204 84.4285 18.3654C84.2556 19.2104 83.7843 20.0867 83.0144 21.0099L76.3682 16.0808C76.1011 16.5346 75.9597 17.0197 75.9283 17.5204C75.8968 18.0212 76.0225 18.5219 76.2739 18.9913C76.5253 19.4764 76.9181 19.8989 77.4366 20.2901C78.018 20.7282 78.5993 20.9786 79.1649 21.0412C79.7306 21.1038 80.2491 20.9786 80.6576 20.6813ZM81.2075 15.1263C80.5162 14.6099 79.8248 14.3752 79.1335 14.3752C78.4422 14.3752 77.8294 14.5943 77.3109 15.0168L82.1659 18.6158C82.543 18.0212 82.653 17.4109 82.4645 16.8006C82.2759 16.1904 81.8674 15.6114 81.2075 15.1263Z" fill="black"/>
<path d="M89.0321 32.7455L88.6864 32.2291L96.6053 29.8819L97.9565 31.744L88.1994 34.279L87.0367 32.6829L91.656 25.7509L92.0488 26.2829L83.9571 28.4267L82.7944 26.8306L88.2936 18.459L89.6449 20.3211L84.8841 27.0184L84.507 26.5176L92.3945 24.1235L93.8243 26.0951L89.0321 32.7455Z" fill="black"/>
<path d="M49.0921 110.64C47.7723 110.593 46.6725 110.39 45.7926 110.045C44.9127 109.685 44.2214 109.232 43.7029 108.653C43.2001 108.074 42.8387 107.416 42.6345 106.697C42.4302 105.961 42.3359 105.194 42.3674 104.396C42.3988 103.583 42.5402 102.816 42.823 102.081C43.1058 101.345 43.5144 100.704 44.08 100.156C44.6456 99.6082 45.3684 99.1857 46.264 98.8727C47.1595 98.5754 48.228 98.4346 49.5006 98.4815L55.3612 98.6693L54.9527 110.828L49.0921 110.64ZM53.1458 100.469L49.4535 100.344C48.5265 100.312 47.7409 100.406 47.1281 100.625C46.4996 100.844 45.9968 101.142 45.6198 101.549C45.2427 101.94 44.9756 102.393 44.8027 102.894C44.6299 103.395 44.5356 103.911 44.5199 104.459C44.5042 104.991 44.5671 105.523 44.6928 106.008C44.8184 106.493 45.0698 106.963 45.4155 107.369C45.7612 107.776 46.2482 108.105 46.861 108.355C47.4738 108.606 48.2437 108.747 49.1707 108.778L52.863 108.903L53.1458 100.469Z" fill="black"/>
<path d="M32.9244 98.1688L31.0076 97.5273C31.3061 96.9483 31.7303 96.4945 32.2645 96.1502C32.7987 95.806 33.4272 95.6182 34.1657 95.5556C34.9041 95.493 35.7054 95.6339 36.601 95.9312C37.6066 96.2754 38.4551 96.7605 39.1307 97.4021C39.8063 98.0436 40.2462 98.7791 40.4662 99.6241C40.6862 100.469 40.639 101.361 40.3091 102.3C39.9948 103.239 39.492 103.974 38.8164 104.537C38.1408 105.085 37.3395 105.429 36.4282 105.539C35.5169 105.648 34.5585 105.539 33.5215 105.195C32.4688 104.835 31.636 104.35 31.0547 103.739C30.4733 103.129 30.1434 102.394 30.0491 101.533C29.9549 100.672 30.1277 99.6867 30.5676 98.5913L38.4079 101.236C38.5179 100.719 38.5022 100.219 38.3765 99.7336C38.2508 99.2485 37.9837 98.8104 37.5909 98.4348C37.1981 98.0593 36.6953 97.762 36.0825 97.5586C35.3912 97.3238 34.7627 97.2612 34.1971 97.3864C33.6472 97.496 33.223 97.762 32.9244 98.1688ZM34.1342 103.63C34.9513 103.896 35.674 103.927 36.3339 103.708C36.9938 103.489 37.5123 103.098 37.8737 102.535L32.1388 100.61C31.966 101.283 32.0445 101.893 32.4059 102.441C32.7673 102.988 33.3486 103.364 34.1342 103.63Z" fill="black"/>
<path d="M26.8753 102.285L21.1561 98.9202L22.036 97.4493L27.7552 100.814L26.8753 102.285ZM23.6386 103.302L21.816 102.238L27.8809 92.0195L29.7035 93.0836L23.6386 103.302Z" fill="black"/>
<path d="M12.7816 91.8324L11.2418 90.3928L17.6366 83.5391L19.0664 84.8691C18.7836 85.2447 18.5322 85.5733 18.3122 85.8393C18.0923 86.1053 17.8723 86.3557 17.668 86.5904L12.7816 91.8324ZM22.2088 87.5136C22.8373 88.0926 23.2615 88.7811 23.4972 89.5635C23.7329 90.3459 23.7643 91.1439 23.56 91.9732C23.3715 92.8026 22.9473 93.5537 22.3031 94.2578C21.6432 94.9776 20.889 95.4471 20.0877 95.6974C19.2707 95.9478 18.4536 95.9791 17.6366 95.7757C16.8196 95.5879 16.0811 95.1811 15.4212 94.5708C14.6828 93.8823 14.2428 93.1938 14.1171 92.4583C13.9914 91.7229 14.0857 91.0187 14.3999 90.3146C14.7142 89.5948 15.1855 88.9063 15.814 88.2491C16.1597 87.8735 16.5839 87.5293 17.0867 87.2163C17.5895 86.9033 18.1237 86.6686 18.6893 86.5278C19.2549 86.387 19.8363 86.387 20.4491 86.5278C21.0618 86.6686 21.6432 86.9816 22.2088 87.5136ZM20.559 88.343C20.0405 87.8735 19.5063 87.5606 18.9721 87.4197C18.4222 87.2789 17.888 87.2945 17.3852 87.4667C16.8824 87.6388 16.4111 87.9518 16.0026 88.3899C15.5469 88.875 15.2641 89.3757 15.1384 89.9077C15.0127 90.4398 15.0441 90.9561 15.217 91.4725C15.4055 91.9889 15.7512 92.4896 16.2697 92.9747C17.0081 93.6632 17.778 93.9762 18.5793 93.9136C19.3806 93.851 20.1191 93.4911 20.7476 92.8026C21.1718 92.3488 21.4389 91.8637 21.5646 91.3317C21.6903 90.7997 21.6746 90.2833 21.5018 89.7669C21.3289 89.2505 21.0147 88.7654 20.559 88.343Z" fill="black"/>
<path d="M4.53284 87.9664L6.15117 86.7772L7.64382 88.7801L6.02548 89.9693L4.53284 87.9664ZM9.12074 87.4657L7.86378 85.7757L15.4213 80.2207L16.6782 81.9107L9.12074 87.4657Z" fill="black"/>
<path d="M2.77313 84.8991L1.70471 83.0996L13.0488 76.4492L14.1172 78.2487L2.77313 84.8991Z" fill="black"/>
<path d="M9.23097 76.2157L8.52393 74.4162C8.93244 74.1502 9.19954 73.7746 9.32524 73.2739C9.45094 72.7731 9.38809 72.2098 9.12098 71.5526C8.96386 71.1301 8.77532 70.8172 8.58678 70.6137C8.39823 70.4103 8.20969 70.2851 8.00543 70.2538C7.80117 70.2225 7.59692 70.2382 7.39266 70.3164C7.14127 70.4103 6.96844 70.5668 6.87417 70.7702C6.79561 70.9736 6.76418 71.224 6.77989 71.5526C6.79561 71.8812 6.85845 72.2568 6.95273 72.6949C7.01557 73.1643 7.06271 73.6338 7.10985 74.1032C7.14127 74.5726 7.14127 75.0108 7.07842 75.4333C7.01557 75.8401 6.87417 76.2157 6.6542 76.513C6.43423 76.8103 6.10428 77.0607 5.66434 77.2328C5.27154 77.3893 4.87874 77.4362 4.47023 77.3893C4.07743 77.3267 3.70034 77.1858 3.35468 76.9511C3.00901 76.7164 2.67906 76.3878 2.38053 75.9966C2.082 75.6054 1.83061 75.136 1.62635 74.6196C1.32783 73.8685 1.20213 73.18 1.24927 72.5854C1.2964 71.9751 1.48495 71.4587 1.83061 71.0206C2.17627 70.5824 2.63192 70.2538 3.19756 70.0348L3.87317 71.756C3.44895 72.0377 3.16613 72.3507 3.07186 72.6949C2.96187 73.0392 3.02472 73.4929 3.22898 74.025C3.43324 74.557 3.70034 74.9325 3.98316 75.136C4.28168 75.3394 4.59592 75.3863 4.92588 75.2612C5.17727 75.1673 5.33439 74.9951 5.41295 74.7604C5.49151 74.5257 5.50722 74.2127 5.49151 73.8372C5.4758 73.4617 5.41295 73.0235 5.33439 72.5228C5.28725 72.0533 5.25583 71.6152 5.2244 71.1927C5.19298 70.7702 5.2244 70.379 5.28725 70.0035C5.3501 69.6279 5.49151 69.2993 5.72719 69.0177C5.96287 68.736 6.27711 68.5013 6.71705 68.3292C7.25125 68.1257 7.76975 68.0788 8.27254 68.2196C8.77532 68.3605 9.23097 68.6578 9.63948 69.1115C10.048 69.5653 10.4094 70.1756 10.7079 70.9267C10.975 71.5839 11.1164 72.1942 11.1478 72.7418C11.1793 73.2895 11.1478 73.759 11.0221 74.1815C10.8964 74.6039 10.7393 74.9482 10.5194 75.2299C10.3151 75.5115 10.0794 75.7462 9.85945 75.9027C9.62377 76.0592 9.41951 76.1687 9.23097 76.2157Z" fill="black"/>
</svg>
