<svg width="37" height="37" viewBox="0 0 37 37" fill="none" xmlns="http://www.w3.org/2000/svg">
<g clip-path="url(#clip0_272_6142)">
<path d="M18.6538 2.44141V6.07005" stroke="black" stroke-width="2" stroke-linecap="round" stroke-linejoin="round"/>
<path d="M18.6538 30.2598V33.8884" stroke="black" stroke-width="2" stroke-linecap="round" stroke-linejoin="round"/>
<path d="M27.1206 12.118C27.1206 11.3238 26.9642 10.5374 26.6603 9.80368C26.3563 9.06994 25.9109 8.40324 25.3493 7.84165C24.7877 7.28007 24.121 6.8346 23.3873 6.53067C22.6535 6.22674 21.8671 6.07031 21.0729 6.07031H16.2347C14.6307 6.07031 13.0925 6.70748 11.9583 7.84165C10.8241 8.97582 10.187 10.5141 10.187 12.118C10.187 13.722 10.8241 15.2603 11.9583 16.3944C13.0925 17.5286 14.6307 18.1658 16.2347 18.1658H22.2824C23.8864 18.1658 25.4247 18.803 26.5588 19.9371C27.693 21.0713 28.3302 22.6096 28.3302 24.2135C28.3302 25.8175 27.693 27.3557 26.5588 28.4899C25.4247 29.6241 23.8864 30.2613 22.2824 30.2613H15.0252C13.4212 30.2613 11.8829 29.6241 10.7488 28.4899C9.61459 27.3557 8.97742 25.8175 8.97742 24.2135" stroke="black" stroke-width="2" stroke-linecap="round" stroke-linejoin="round"/>
</g>
<defs>
<clipPath id="clip0_272_6142">
<rect width="36.166" height="36.166" fill="white" transform="translate(0.570801 0.0820312)"/>
</clipPath>
</defs>
</svg>
