<svg width="37" height="37" viewBox="0 0 37 37" fill="none" xmlns="http://www.w3.org/2000/svg">
<path d="M3.16919 28.7305H34.5805" stroke="black" stroke-width="1.68275" stroke-linecap="round" stroke-linejoin="round"/>
<path d="M32.3369 28.7306V14.5211C32.3372 14.3362 32.2918 14.154 32.2047 13.9908C32.1176 13.8276 31.9915 13.6885 31.8376 13.5858L19.4975 5.35856C19.3131 5.23556 19.0965 5.16992 18.8748 5.16992C18.6532 5.16992 18.4366 5.23556 18.2522 5.35856L5.91206 13.5858C5.75819 13.6885 5.63209 13.8276 5.54499 13.9908C5.45789 14.154 5.41249 14.3362 5.41284 14.5211V28.7306" stroke="black" stroke-width="1.68275" stroke-linecap="round" stroke-linejoin="round"/>
<path d="M11.022 28.7305V19.7559H26.7276V28.7305" stroke="black" stroke-width="1.68275" stroke-linecap="round" stroke-linejoin="round"/>
<path d="M18.8749 19.7559V28.7305" stroke="black" stroke-width="1.68275" stroke-linecap="round" stroke-linejoin="round"/>
<path d="M11.022 24.2441H26.7276" stroke="black" stroke-width="1.68275" stroke-linecap="round" stroke-linejoin="round"/>
</svg>
