<svg width="35" height="36" viewBox="0 0 35 36" fill="none" xmlns="http://www.w3.org/2000/svg">
<path d="M18.4839 29.6713V4.92864C18.4838 4.73395 18.4309 4.54294 18.3307 4.37597C18.2306 4.20901 18.087 4.07235 17.9153 3.98056C17.7436 3.88878 17.5502 3.84531 17.3558 3.85479C17.1613 3.86427 16.9731 3.92635 16.8111 4.03441L6.05343 11.2057C5.90587 11.3042 5.78495 11.4376 5.70143 11.5941C5.6179 11.7506 5.57437 11.9253 5.57471 12.1027V29.6713" stroke="black" stroke-width="1.61365" stroke-linecap="round" stroke-linejoin="round"/>
<path d="M18.484 12.459H28.1659C28.4512 12.459 28.7249 12.5723 28.9266 12.7741C29.1283 12.9758 29.2417 13.2494 29.2417 13.5348V29.6713" stroke="black" stroke-width="1.61365" stroke-linecap="round" stroke-linejoin="round"/>
<path d="M2.34741 29.6699H32.4689" stroke="black" stroke-width="1.61365" stroke-linecap="round" stroke-linejoin="round"/>
<path d="M14.1809 15.6855V17.8371" stroke="black" stroke-width="1.61365" stroke-linecap="round" stroke-linejoin="round"/>
<path d="M9.87781 15.6855V17.8371" stroke="black" stroke-width="1.61365" stroke-linecap="round" stroke-linejoin="round"/>
<path d="M9.87781 23.2168V25.3683" stroke="black" stroke-width="1.61365" stroke-linecap="round" stroke-linejoin="round"/>
<path d="M14.1809 23.2168V25.3683" stroke="black" stroke-width="1.61365" stroke-linecap="round" stroke-linejoin="round"/>
</svg>
