<svg width="28" height="30" viewBox="0 0 28 30" fill="none" xmlns="http://www.w3.org/2000/svg">
<path d="M17.3591 26.9123V20.0703C17.3591 19.7678 17.239 19.4778 17.0251 19.2639C16.8113 19.0501 16.5212 18.9299 16.2188 18.9299H11.6574C11.355 18.9299 11.0649 19.0501 10.851 19.2639C10.6372 19.4778 10.517 19.7678 10.517 20.0703V26.9123C10.517 27.2148 10.3969 27.5048 10.183 27.7187C9.96919 27.9326 9.67914 28.0527 9.3767 28.0527H2.53463C2.23219 28.0527 1.94214 27.9326 1.72829 27.7187C1.51443 27.5048 1.39429 27.2148 1.39429 26.9123V13.7328C1.3943 13.5739 1.42753 13.4167 1.49185 13.2714C1.55616 13.1261 1.65014 12.9958 1.76775 12.889L13.1712 2.12125C13.3812 1.93013 13.6549 1.82422 13.9388 1.82422C14.2227 1.82422 14.4964 1.93013 14.7064 2.12125L26.1098 12.889C26.2275 12.9958 26.3214 13.1261 26.3857 13.2714C26.4501 13.4167 26.4833 13.5739 26.4833 13.7328V26.9123C26.4833 27.2148 26.3632 27.5048 26.1493 27.7187C25.9354 27.9326 25.6454 28.0527 25.343 28.0527H18.4995C18.197 28.0527 17.907 27.9326 17.6931 27.7187C17.4793 27.5048 17.3591 27.2148 17.3591 26.9123Z" stroke="#0B0B0B" stroke-width="2" stroke-linecap="round" stroke-linejoin="round"/>
</svg>
