<svg width="49" height="49" viewBox="0 0 49 49" fill="none" xmlns="http://www.w3.org/2000/svg">
<path d="M34.7314 13.9492H27.1969L18.5963 22.2918C18.4364 22.4516 18.3145 22.6453 18.2397 22.8586C18.1648 23.0719 18.1389 23.2993 18.1639 23.524C18.1888 23.7487 18.264 23.9649 18.3839 24.1565C18.5037 24.3482 18.6652 24.5104 18.8562 24.6313C22.1545 26.739 26.6318 26.594 30.2107 22.9906L37.7452 29.0182L40.759 26.0044" stroke="#0B0B0B" stroke-width="1.87498" stroke-linecap="round" stroke-linejoin="round"/>
<path d="M37.7453 29.0177L30.2108 36.5522L18.1556 33.5384L7.6073 26.0039" stroke="#0B0B0B" stroke-width="1.87498" stroke-linecap="round" stroke-linejoin="round"/>
<path d="M10.621 36.5527L15.1417 39.5665L21.1693 41.0734" stroke="#0B0B0B" stroke-width="1.87498" stroke-linecap="round" stroke-linejoin="round"/>
<path d="M13.6349 13.9493L24.1832 10.9355L34.7315 13.9493" stroke="#0B0B0B" stroke-width="1.87498" stroke-linecap="round" stroke-linejoin="round"/>
<path d="M6.9328 12.2831L2.25388 21.6409C2.1652 21.818 2.11229 22.0108 2.09819 22.2084C2.08408 22.4059 2.10906 22.6043 2.17169 22.7922C2.23432 22.9801 2.33337 23.1538 2.46318 23.3034C2.59299 23.453 2.75102 23.5755 2.92822 23.6639L7.60714 26.0034L13.6347 13.9482L8.95582 11.6087C8.77873 11.5201 8.5859 11.4671 8.38835 11.453C8.1908 11.4389 7.99241 11.4639 7.80452 11.5265C7.61664 11.5892 7.44294 11.6882 7.29336 11.818C7.14378 11.9479 7.02126 12.1059 6.9328 12.2831Z" stroke="#0B0B0B" stroke-width="1.87498" stroke-linecap="round" stroke-linejoin="round"/>
<path d="M39.4102 11.6087L34.7313 13.9482L40.7589 26.0034L45.4378 23.6639C45.615 23.5755 45.7731 23.453 45.9029 23.3034C46.0327 23.1538 46.1317 22.9801 46.1944 22.7922C46.257 22.6043 46.282 22.4059 46.2679 22.2084C46.2538 22.0108 46.2009 21.818 46.1122 21.6409L41.4333 12.2831C41.3448 12.1059 41.2223 11.9479 41.0727 11.818C40.9231 11.6882 40.7494 11.5892 40.5615 11.5265C40.3737 11.4639 40.1753 11.4389 39.9777 11.453C39.7802 11.4671 39.5873 11.5201 39.4102 11.6087Z" stroke="#0B0B0B" stroke-width="1.87498" stroke-linecap="round" stroke-linejoin="round"/>
</svg>
