<svg width="41" height="41" viewBox="0 0 41 41" fill="none" xmlns="http://www.w3.org/2000/svg">
<path d="M8.0592 22.0938V32.6647C8.0592 32.9926 8.18945 33.307 8.42128 33.5388C8.65311 33.7707 8.96754 33.9009 9.29539 33.9009H31.5468C31.8747 33.9009 32.1891 33.7707 32.4209 33.5388C32.6527 33.307 32.783 32.9926 32.783 32.6647V22.0938" stroke="black" stroke-width="1.85428" stroke-linecap="round" stroke-linejoin="round"/>
<path d="M8.98643 6.70508H31.8559C32.1245 6.70513 32.3857 6.79262 32.6001 6.95432C32.8145 7.11602 32.9704 7.34313 33.0442 7.60131L35.2554 15.3584H5.58691L7.80278 7.60131C7.87641 7.3439 8.03162 7.11734 8.24508 6.95571C8.45853 6.79409 8.71869 6.70613 8.98643 6.70508Z" stroke="black" stroke-width="1.85428" stroke-linecap="round" stroke-linejoin="round"/>
<path d="M15.4764 15.3574V17.8298C15.4764 19.1412 14.9555 20.3989 14.0281 21.3263C13.1008 22.2536 11.8431 22.7746 10.5317 22.7746C9.22024 22.7746 7.96252 22.2536 7.0352 21.3263C6.10788 20.3989 5.58691 19.1412 5.58691 17.8298V15.3574" stroke="black" stroke-width="1.85428" stroke-linecap="round" stroke-linejoin="round"/>
<path d="M25.3658 15.3574V17.8298C25.3658 19.1412 24.8449 20.3989 23.9175 21.3263C22.9902 22.2536 21.7325 22.7746 20.4211 22.7746C19.1096 22.7746 17.8519 22.2536 16.9246 21.3263C15.9973 20.3989 15.4763 19.1412 15.4763 17.8298V15.3574" stroke="black" stroke-width="1.85428" stroke-linecap="round" stroke-linejoin="round"/>
<path d="M35.2554 15.3574V17.8298C35.2554 19.1412 34.7344 20.3989 33.8071 21.3263C32.8797 22.2536 31.622 22.7746 30.3106 22.7746C28.9992 22.7746 27.7415 22.2536 26.8141 21.3263C25.8868 20.3989 25.3658 19.1412 25.3658 17.8298V15.3574" stroke="black" stroke-width="1.85428" stroke-linecap="round" stroke-linejoin="round"/>
</svg>
