<svg width="24" height="24" viewBox="0 0 24 24" fill="none" xmlns="http://www.w3.org/2000/svg">
<path d="M16.9765 2.40372C18.2913 2.4075 19.5511 2.91176 20.4807 3.80637C21.4104 4.70099 21.9345 5.91326 21.9384 7.17843V16.7268C21.9345 17.992 21.4104 19.2043 20.4807 20.0989C19.5511 20.9935 18.2913 21.4978 16.9765 21.5015H7.05376C5.73899 21.4978 4.47919 20.9935 3.54951 20.0989C2.61982 19.2043 2.09579 17.992 2.09186 16.7268V7.17843C2.09579 5.91326 2.61982 4.70099 3.54951 3.80637C4.47919 2.91176 5.73899 2.4075 7.05376 2.40372H16.9765ZM16.9765 0.494141H7.05376C3.23319 0.494141 0.107422 3.50199 0.107422 7.17843V16.7268C0.107422 20.4033 3.23319 23.4111 7.05376 23.4111H16.9765C20.7971 23.4111 23.9228 20.4033 23.9228 16.7268V7.17843C23.9228 3.50199 20.7971 0.494141 16.9765 0.494141Z" fill="#0B0B0B"/>
<path d="M18.4642 7.17712C18.1698 7.17712 17.8821 7.09312 17.6373 6.93574C17.3925 6.77835 17.2017 6.55465 17.0891 6.29293C16.9764 6.03121 16.9469 5.74322 17.0044 5.46538C17.0618 5.18754 17.2036 4.93233 17.4117 4.73201C17.6199 4.5317 17.8851 4.39529 18.1738 4.34002C18.4626 4.28476 18.7619 4.31312 19.0338 4.42153C19.3058 4.52994 19.5383 4.71352 19.7018 4.94906C19.8654 5.1846 19.9527 5.46153 19.9527 5.74481C19.9531 5.93302 19.9149 6.11945 19.8402 6.29341C19.7656 6.46737 19.656 6.62543 19.5177 6.75851C19.3794 6.89159 19.2151 6.99708 19.0343 7.06892C18.8536 7.14076 18.6598 7.17753 18.4642 7.17712ZM12.0144 8.13166C12.7995 8.13166 13.5669 8.35568 14.2197 8.77539C14.8725 9.1951 15.3812 9.79165 15.6817 10.4896C15.9821 11.1876 16.0607 11.9556 15.9075 12.6965C15.7544 13.4374 15.3763 14.118 14.8212 14.6522C14.2661 15.1864 13.5588 15.5502 12.7888 15.6976C12.0188 15.845 11.2207 15.7693 10.4954 15.4802C9.77006 15.1911 9.15012 14.7016 8.71396 14.0734C8.27779 13.4453 8.04499 12.7068 8.04499 11.9513C8.04612 10.9386 8.46468 9.9677 9.20885 9.25161C9.95301 8.53552 10.962 8.13274 12.0144 8.13166ZM12.0144 6.22208C10.8368 6.22208 9.68572 6.55809 8.70662 7.18763C7.72751 7.81717 6.96439 8.71195 6.51376 9.75884C6.06313 10.8057 5.94522 11.9577 6.17495 13.069C6.40468 14.1804 6.97173 15.2013 7.80439 16.0025C8.63705 16.8038 9.69793 17.3494 10.8529 17.5705C12.0078 17.7915 13.2049 17.6781 14.2928 17.2445C15.3808 16.8108 16.3106 16.0765 16.9648 15.1343C17.6191 14.1922 17.9683 13.0845 17.9683 11.9513C17.9683 10.4318 17.341 8.97458 16.2244 7.90014C15.1078 6.82569 13.5935 6.22208 12.0144 6.22208Z" fill="#0B0B0B"/>
</svg>
