<svg width="26" height="24" viewBox="0 0 26 24" fill="none" xmlns="http://www.w3.org/2000/svg">
<path d="M12.0489 0.927052C12.3483 0.00574112 13.6517 0.00573993 13.951 0.927051L16.1432 7.67376C16.2771 8.08578 16.661 8.36475 17.0942 8.36475H24.1881C25.1569 8.36475 25.5596 9.60436 24.7759 10.1738L19.0368 14.3435C18.6864 14.5981 18.5397 15.0495 18.6736 15.4615L20.8657 22.2082C21.1651 23.1295 20.1106 23.8956 19.3269 23.3262L13.5878 19.1565C13.2373 18.9019 12.7627 18.9019 12.4122 19.1565L6.6731 23.3262C5.88939 23.8956 4.83491 23.1295 5.13426 22.2082L7.3264 15.4615C7.46028 15.0495 7.31362 14.5981 6.96313 14.3435L1.22404 10.1738C0.440322 9.60436 0.843096 8.36475 1.81182 8.36475H8.90573C9.33896 8.36475 9.72291 8.08578 9.85679 7.67376L12.0489 0.927052Z" fill="#FFCE4F"/>
</svg>
