<svg width="100" height="110" viewBox="0 0 100 110" fill="none" xmlns="http://www.w3.org/2000/svg">
<path d="M61.6859 101.452C61.8478 102.114 62.516 102.521 63.1735 102.342C69.5347 100.617 75.49 97.6331 80.685 93.5632C86.2039 89.2396 90.7381 83.7895 93.9854 77.576C97.2327 71.3626 99.1186 64.5285 99.5174 57.529C99.8929 50.9402 98.9426 44.3474 96.7274 38.1397C96.4985 37.4981 95.7831 37.1818 95.1473 37.4267C94.5116 37.6716 94.1965 38.385 94.4246 39.0269C96.5141 44.9073 97.4099 51.1499 97.0544 57.3886C96.6755 64.0381 94.8839 70.5306 91.7989 76.4333C88.714 82.3361 84.4065 87.5137 79.1636 91.6211C74.2445 95.4748 68.6079 98.3035 62.5871 99.9451C61.9298 100.124 61.5241 100.79 61.6859 101.452Z" fill="black"/>
<path d="M51.5325 6.63132C51.5505 5.9503 51.013 5.38196 50.3318 5.38092C43.7407 5.37081 37.21 6.68143 31.1267 9.24C24.6642 11.9581 18.8552 16.0222 14.0866 21.1615C9.31798 26.3008 5.69936 32.3974 3.47181 39.0449C1.37499 45.3024 0.55608 51.9128 1.05871 58.4847C1.11067 59.1639 1.71758 59.6575 2.39535 59.5885C3.07311 59.5196 3.56499 58.9144 3.51393 58.235C3.04621 52.012 3.82559 45.7538 5.81103 39.8288C7.9272 33.5136 11.3649 27.7219 15.8951 22.8395C20.4252 17.9572 25.9438 14.0963 32.0832 11.5141C37.8433 9.09144 44.0258 7.84656 50.2663 7.84792C50.9476 7.84807 51.5144 7.31234 51.5325 6.63132Z" fill="black"/>
<path d="M61.3127 13.1304L59.5844 0.0644531L61.8469 0.674719L63.2138 12.3011L62.5382 12.1133L69.5615 2.74023L71.7769 3.33485L63.7637 13.7876L61.3127 13.1304Z" fill="black"/>
<path d="M73.6466 7.59126L75.5321 8.53013L71.3527 16.9017L69.4672 15.9629L73.6466 7.59126ZM77.4961 5.05631L76.6005 6.85581L74.3537 5.74481L75.2492 3.94531L77.4961 5.05631Z" fill="black"/>
<path d="M81.3141 19.8121L82.9324 21.017C82.4768 21.4708 81.9268 21.7681 81.3141 21.9403C80.7013 22.0967 80.0414 22.0967 79.3186 21.909C78.6116 21.7368 77.8731 21.3613 77.119 20.798C76.2548 20.1564 75.6106 19.4366 75.1707 18.6229C74.7307 17.8092 74.5422 16.9642 74.5893 16.1036C74.6365 15.243 74.9664 14.398 75.5635 13.6C76.1605 12.8019 76.8676 12.2542 77.6846 11.9413C78.5016 11.6283 79.3501 11.5501 80.2614 11.7222C81.157 11.8943 82.0525 12.3012 82.9167 12.9427C83.8123 13.6156 84.4408 14.3198 84.8021 15.0865C85.1635 15.8532 85.2578 16.6513 85.085 17.4963C84.9121 18.3412 84.4408 19.2175 83.6709 20.1408L77.0247 15.2117C76.7576 15.6655 76.6162 16.1506 76.5848 16.6513C76.5533 17.152 76.679 17.6527 76.9304 18.1222C77.1818 18.6073 77.5746 19.0298 78.0931 19.421C78.6745 19.8591 79.2558 20.1095 79.8214 20.172C80.3871 20.2346 80.9056 20.1095 81.3141 19.8121ZM81.864 14.2572C81.1727 13.7408 80.4813 13.5061 79.79 13.5061C79.0987 13.5061 78.4859 13.7251 77.9674 14.1476L82.8224 17.7466C83.1995 17.152 83.3095 16.5417 83.121 15.9315C82.9324 15.3212 82.5239 14.7422 81.864 14.2572Z" fill="black"/>
<path d="M89.6886 31.8763L89.3429 31.3599L97.2618 29.0128L98.613 30.8749L88.8559 33.4098L87.6932 31.8137L92.3125 24.8817L92.7053 25.4138L84.6136 27.5575L83.4509 25.9614L88.9501 17.5898L90.3014 19.4519L85.5406 26.1492L85.1635 25.6485L93.051 23.2544L94.4808 25.226L89.6886 31.8763Z" fill="black"/>
<path d="M49.7486 109.771C48.4288 109.724 47.329 109.52 46.4491 109.176C45.5692 108.816 44.8779 108.362 44.3594 107.783C43.8566 107.205 43.4952 106.547 43.291 105.827C43.0867 105.092 42.9924 104.325 43.0239 103.527C43.0553 102.714 43.1967 101.947 43.4795 101.211C43.7623 100.476 44.1708 99.8344 44.7365 99.2867C45.3021 98.739 46.0249 98.3165 46.9204 98.0036C47.816 97.7063 48.8844 97.5654 50.1571 97.6124L56.0177 97.8002L55.6092 109.959L49.7486 109.771ZM53.8023 99.5997L50.11 99.4745C49.183 99.4432 48.3974 99.5371 47.7846 99.7561C47.1561 99.9752 46.6533 100.273 46.2763 100.679C45.8992 101.071 45.6321 101.524 45.4592 102.025C45.2864 102.526 45.1921 103.042 45.1764 103.59C45.1607 104.122 45.2235 104.654 45.3492 105.139C45.4749 105.624 45.7263 106.094 46.072 106.5C46.4177 106.907 46.9047 107.236 47.5175 107.486C48.1303 107.737 48.9002 107.877 49.8272 107.909L53.5195 108.034L53.8023 99.5997Z" fill="black"/>
<path d="M33.5809 97.2997L31.6641 96.6581C31.9626 96.0792 32.3868 95.6254 32.921 95.2811C33.4552 94.9369 34.0837 94.7491 34.8222 94.6865C35.5606 94.6239 36.3619 94.7647 37.2575 95.062C38.2631 95.4063 39.1115 95.8914 39.7872 96.5329C40.4628 97.1745 40.9027 97.9099 41.1227 98.7549C41.3427 99.5999 41.2955 100.492 40.9656 101.431C40.6513 102.37 40.1485 103.105 39.4729 103.668C38.7973 104.216 37.996 104.56 37.0847 104.67C36.1734 104.779 35.215 104.67 34.178 104.326C33.1253 103.966 32.2925 103.481 31.7112 102.87C31.1298 102.26 30.7999 101.525 30.7056 100.664C30.6113 99.8033 30.7842 98.8175 31.2241 97.7222L39.0644 100.367C39.1744 99.8503 39.1587 99.3495 39.033 98.8645C38.9073 98.3794 38.6402 97.9412 38.2474 97.5657C37.8546 97.1902 37.3518 96.8928 36.739 96.6894C36.0477 96.4547 35.4192 96.3921 34.8536 96.5173C34.3037 96.6268 33.8794 96.8928 33.5809 97.2997ZM34.7907 102.761C35.6078 103.027 36.3305 103.058 36.9904 102.839C37.6503 102.62 38.1688 102.229 38.5302 101.665L32.7953 99.7407C32.6225 100.414 32.701 101.024 33.0624 101.572C33.4238 102.119 34.0051 102.495 34.7907 102.761Z" fill="black"/>
<path d="M27.5319 101.415L21.8127 98.0511L22.6926 96.5802L28.4117 99.9445L27.5319 101.415ZM24.2952 102.432L22.4726 101.368L28.5374 91.1504L30.36 92.2144L24.2952 102.432Z" fill="black"/>
<path d="M13.4382 90.9633L11.8984 89.5237L18.2932 82.6699L19.723 84C19.4401 84.3755 19.1888 84.7041 18.9688 84.9702C18.7488 85.2362 18.5288 85.4865 18.3246 85.7213L13.4382 90.9633ZM22.8654 86.6445C23.4938 87.2234 23.9181 87.9119 24.1537 88.6943C24.3894 89.4767 24.4209 90.2748 24.2166 91.1041C24.0281 91.9334 23.6038 92.6845 22.9596 93.3887C22.2997 94.1085 21.5456 94.5779 20.7442 94.8283C19.9272 95.0787 19.1102 95.11 18.2932 94.9065C17.4761 94.7188 16.7377 94.3119 16.0778 93.7017C15.3393 93.0131 14.8994 92.3246 14.7737 91.5892C14.648 90.8537 14.7423 90.1496 15.0565 89.4454C15.3707 88.7256 15.8421 88.0371 16.4706 87.3799C16.8162 87.0044 17.2405 86.6601 17.7432 86.3472C18.246 86.0342 18.7802 85.7995 19.3459 85.6587C19.9115 85.5178 20.4928 85.5178 21.1056 85.6587C21.7184 85.7995 22.2997 86.1124 22.8654 86.6445ZM21.2156 87.4738C20.6971 87.0044 20.1629 86.6914 19.6287 86.5506C19.0788 86.4098 18.5446 86.4254 18.0418 86.5975C17.539 86.7697 17.0676 87.0826 16.6591 87.5208C16.2035 88.0058 15.9207 88.5066 15.795 89.0386C15.6693 89.5706 15.7007 90.087 15.8735 90.6034C16.0621 91.1198 16.4077 91.6205 16.9262 92.1056C17.6647 92.7941 18.4346 93.107 19.2359 93.0444C20.0372 92.9818 20.7757 92.6219 21.4041 91.9334C21.8284 91.4797 22.0955 90.9946 22.2212 90.4625C22.3469 89.9305 22.3312 89.4141 22.1583 88.8978C21.9855 88.3814 21.6712 87.8963 21.2156 87.4738Z" fill="black"/>
<path d="M5.18936 87.0972L6.8077 85.908L8.30034 87.9109L6.682 89.1002L5.18936 87.0972ZM9.77727 86.5965L8.52031 84.9066L16.0778 79.3516L17.3347 81.0415L9.77727 86.5965Z" fill="black"/>
<path d="M3.42962 84.0299L2.36121 82.2304L13.7053 75.5801L14.7737 77.3796L3.42962 84.0299Z" fill="black"/>
<path d="M9.88746 75.3465L9.18042 73.547C9.58893 73.281 9.85604 72.9055 9.98173 72.4047C10.1074 71.904 10.0446 71.3407 9.77748 70.6835C9.62036 70.261 9.43181 69.948 9.24327 69.7446C9.05473 69.5412 8.86618 69.416 8.66192 69.3847C8.45767 69.3534 8.25341 69.3691 8.04916 69.4473C7.79776 69.5412 7.62493 69.6977 7.53066 69.9011C7.4521 70.1045 7.42068 70.3549 7.43639 70.6835C7.4521 71.0121 7.51495 71.3876 7.60922 71.8258C7.67207 72.2952 7.7192 72.7646 7.76634 73.2341C7.79776 73.7035 7.79776 74.1416 7.73492 74.5641C7.67207 74.971 7.53066 75.3465 7.31069 75.6438C7.09072 75.9411 6.76077 76.1915 6.32084 76.3636C5.92803 76.5201 5.53523 76.5671 5.12672 76.5201C4.73392 76.4575 4.35683 76.3167 4.01117 76.082C3.66551 75.8473 3.33555 75.5187 3.03702 75.1275C2.7385 74.7363 2.4871 74.2668 2.28285 73.7505C1.98432 72.9994 1.85862 72.3108 1.90576 71.7162C1.9529 71.106 2.14144 70.5896 2.4871 70.1514C2.83277 69.7133 3.28842 69.3847 3.85405 69.1656L4.52967 70.8869C4.10544 71.1686 3.82263 71.4815 3.72835 71.8258C3.61837 72.17 3.68122 72.6238 3.88547 73.1558C4.08973 73.6879 4.35683 74.0634 4.63965 74.2668C4.93818 74.4702 5.25242 74.5172 5.58237 74.392C5.83376 74.2981 5.99088 74.126 6.06944 73.8913C6.148 73.6566 6.16372 73.3436 6.148 72.9681C6.13229 72.5925 6.06944 72.1544 5.99088 71.6536C5.94375 71.1842 5.91232 70.7461 5.8809 70.3236C5.84947 69.9011 5.8809 69.5099 5.94375 69.1343C6.0066 68.7588 6.148 68.4302 6.38368 68.1485C6.61936 67.8669 6.9336 67.6321 7.37354 67.46C7.90775 67.2566 8.42624 67.2097 8.92903 67.3505C9.43181 67.4913 9.88746 67.7886 10.296 68.2424C10.7045 68.6962 11.0659 69.3065 11.3644 70.0576C11.6315 70.7148 11.7729 71.325 11.8043 71.8727C11.8358 72.4204 11.8043 72.8898 11.6786 73.3123C11.5529 73.7348 11.3958 74.0791 11.1758 74.3607C10.9716 74.6424 10.7359 74.8771 10.5159 75.0336C10.2803 75.1901 10.076 75.2996 9.88746 75.3465Z" fill="black"/>
</svg>
