<svg width="68" height="52" viewBox="0 0 68 52" fill="none" xmlns="http://www.w3.org/2000/svg">
<path d="M49.4466 25.7874C51.3133 25.7874 52.8266 24.2741 52.8266 22.4074C52.8266 20.5406 51.3133 19.0273 49.4466 19.0273C47.5798 19.0273 46.0666 20.5406 46.0666 22.4074C46.0666 24.2741 47.5798 25.7874 49.4466 25.7874Z" fill="#1E1E1E"/>
<path d="M30.2936 10.0137H41.5603" stroke="#1E1E1E" stroke-width="2" stroke-linecap="round" stroke-linejoin="round"/>
<path d="M59.5867 1H39.3066" stroke="#1E1E1E" stroke-width="2" stroke-linecap="round" stroke-linejoin="round"/>
<path d="M1 30.2932C1 28.5004 1.71221 26.7809 2.97996 25.5132C4.24771 24.2454 5.96715 23.5332 7.76002 23.5332" stroke="#1E1E1E" stroke-width="2" stroke-linecap="round" stroke-linejoin="round"/>
<path d="M60.8092 16.7734H61.8401C63.0353 16.7734 64.1816 17.2482 65.0268 18.0933C65.8719 18.9385 66.3468 20.0848 66.3468 21.28V30.2934C66.3468 31.4886 65.8719 32.6349 65.0268 33.4801C64.1816 34.3253 63.0353 34.8001 61.8401 34.8001H59.5867L54.4886 49.0778C54.3322 49.5158 54.0441 49.8947 53.6639 50.1624C53.2836 50.4302 52.8299 50.5738 52.3648 50.5734H48.782C48.3169 50.5738 47.8631 50.4302 47.4829 50.1624C47.1027 49.8947 46.8146 49.5158 46.6582 49.0778L45.5851 46.0668H26.2683L25.1952 49.0778C25.0388 49.5158 24.7507 49.8947 24.3705 50.1624C23.9902 50.4302 23.5365 50.5738 23.0714 50.5734H19.4886C19.0235 50.5738 18.5697 50.4302 18.1895 50.1624C17.8093 49.8947 17.5212 49.5158 17.3648 49.0778L13.675 38.7434C9.86499 34.595 7.75368 29.1659 7.75996 23.5334C7.75996 17.5572 10.134 11.8257 14.3598 7.59988C18.5857 3.37405 24.3171 1 30.2933 1H39.3067C43.7038 0.998728 48.0052 2.28397 51.6808 4.69734C55.3564 7.1107 58.2456 10.5467 59.9923 14.582C60.3014 15.2982 60.574 16.0296 60.8092 16.7734Z" stroke="#1E1E1E" stroke-width="2" stroke-linecap="round" stroke-linejoin="round"/>
</svg>
