<svg width="66" height="52" viewBox="0 0 66 52" fill="none" xmlns="http://www.w3.org/2000/svg">
<path d="M56.1735 23.5256C60.5266 23.5256 64.0555 19.9967 64.0555 15.6437C64.0555 11.2906 60.5266 7.76172 56.1735 7.76172C51.8204 7.76172 48.2916 11.2906 48.2916 15.6437C48.2916 19.9967 51.8204 23.5256 56.1735 23.5256Z" stroke="black" stroke-width="2" stroke-linecap="round" stroke-linejoin="round"/>
<path d="M12.2599 50.549H3.25198C2.65472 50.549 2.08192 50.3118 1.65959 49.8895C1.23726 49.4671 1 48.8943 1 48.2971V37.0371C1 36.4399 1.23726 35.8671 1.65959 35.4447C2.08192 35.0224 2.65472 34.7852 3.25198 34.7852H12.2599" stroke="black" stroke-width="2" stroke-linecap="round" stroke-linejoin="round"/>
<path d="M30.2761 37.0373H39.2841L58.1444 32.6994C58.8378 32.5094 59.5657 32.4818 60.2715 32.6189C60.9773 32.7559 61.642 33.0539 62.2139 33.4896C62.7858 33.9254 63.2495 34.4871 63.569 35.1312C63.8884 35.7753 64.0551 36.4844 64.0559 37.2034C64.0563 38.0715 63.8146 38.9225 63.3582 39.6609C62.9017 40.3993 62.2484 40.9959 61.4717 41.3836L50.544 46.0452L32.5281 50.5492H12.2603V34.7853L19.2977 27.7479C19.9267 27.121 20.6731 26.6243 21.4943 26.2862C22.3154 25.9481 23.1952 25.7752 24.0832 25.7774H38.1581C39.6512 25.7774 41.0832 26.3705 42.1391 27.4263C43.1949 28.4822 43.788 29.9142 43.788 31.4073C43.788 32.9005 43.1949 34.3325 42.1391 35.3883C41.0832 36.4441 39.6512 37.0373 38.1581 37.0373H30.2761Z" stroke="black" stroke-width="2" stroke-linecap="round" stroke-linejoin="round"/>
<path d="M48.2923 16.0072C46.7625 16.7307 45.0406 16.9426 43.381 16.6117C41.7215 16.2808 40.2125 15.4245 39.0772 14.1696C37.942 12.9146 37.2408 11.3277 37.0773 9.64334C36.9139 7.95903 37.2968 6.26683 38.1695 4.81701C39.0423 3.36719 40.3584 2.23675 41.9234 1.59286C43.4883 0.948978 45.2189 0.825847 46.8593 1.24168C48.4996 1.65751 49.9626 2.59023 51.0318 3.90188C52.101 5.21354 52.7196 6.83447 52.7963 8.52496" stroke="black" stroke-width="2" stroke-linecap="round" stroke-linejoin="round"/>
</svg>
