<svg width="68" height="47" viewBox="0 0 68 47" fill="none" xmlns="http://www.w3.org/2000/svg">
<path d="M49.612 5.48828H38.3896L25.5792 17.9143C25.341 18.1523 25.1595 18.4409 25.048 18.7586C24.9365 19.0763 24.8979 19.415 24.9351 19.7497C24.9723 20.0843 25.0843 20.4063 25.2628 20.6918C25.4413 20.9773 25.6818 21.2189 25.9664 21.3989C30.879 24.5383 37.5479 24.3223 42.8785 18.9552L54.101 27.9331L58.5899 23.4441" stroke="black" stroke-width="2" stroke-linecap="round" stroke-linejoin="round"/>
<path d="M54.1011 27.9343L42.8787 39.1567L24.9228 34.6677L9.21143 23.4453" stroke="black" stroke-width="2" stroke-linecap="round" stroke-linejoin="round"/>
<path d="M13.7002 39.1562L20.4336 43.6452L29.4116 45.8897" stroke="black" stroke-width="2" stroke-linecap="round" stroke-linejoin="round"/>
<path d="M18.189 5.48897L33.9003 1L49.6117 5.48897" stroke="black" stroke-width="2" stroke-linecap="round" stroke-linejoin="round"/>
<path d="M8.20672 3.00958L1.2376 16.9478C1.10551 17.2116 1.0267 17.4988 1.0057 17.793C0.984692 18.0873 1.0219 18.3828 1.11518 18.6626C1.20846 18.9425 1.356 19.2012 1.54935 19.424C1.7427 19.6468 1.97807 19.8293 2.24201 19.961L9.21113 23.4456L18.1891 5.48974L11.2199 2.00518C10.9562 1.87309 10.669 1.79428 10.3747 1.77328C10.0805 1.75227 9.78498 1.78947 9.50512 1.88276C9.22527 1.97604 8.96655 2.12358 8.74376 2.31693C8.52097 2.51028 8.33848 2.74565 8.20672 3.00958Z" stroke="black" stroke-width="2" stroke-linecap="round" stroke-linejoin="round"/>
<path d="M56.5809 2.00518L49.6118 5.48974L58.5897 23.4456L65.5589 19.961C65.8228 19.8293 66.0582 19.6468 66.2515 19.424C66.4449 19.2012 66.5924 18.9425 66.6857 18.6626C66.779 18.3828 66.8162 18.0873 66.7952 17.793C66.7742 17.4988 66.6954 17.2116 66.5633 16.9478L59.5942 3.00958C59.4624 2.74565 59.2799 2.51028 59.0571 2.31693C58.8343 2.12358 58.5756 1.97604 58.2958 1.88276C58.0159 1.78947 57.7204 1.75227 57.4262 1.77328C57.1319 1.79428 56.8447 1.87309 56.5809 2.00518Z" stroke="black" stroke-width="2" stroke-linecap="round" stroke-linejoin="round"/>
</svg>
